
<svg xmlns="http://www.w3.org/2000/svg">
    <defs>
        <linearGradient id="a" x1="0" y1="202" x2="202" y2="202" gradientUnits="userSpaceOnUse">
            <stop stop-color="#5D0202" stop-opacity="0"/>
            <stop offset="1" stop-color="#5D0202" stop-opacity=".5"/>
        </linearGradient>
    </defs>
    <symbol viewBox="0 0 202 202" id="friendship">
        <path style="opacity:.2;fill:url(#a)" d="M202 101a101 101 0 0 1-101 101A101 101 0 0 1 0 101 101 101 0 0 1 101 0a101 101 0 0 1 101 101Z" transform="matrix(0 -1 -1 0 202 202)"/>
		<path d="M173.2 39.5a7.9 7.9 0 0 0-3 .4c-1.3.6-2.7 3.9-3.6 9a62.8 62.8 0 0 0-1.1 13.5c0 .8.4 1.6 1 2 4.4 3.1 19.2-.7 20.8-1 .7-1.5 7.5-14.9 4.2-18.5-3-3.2-12.9-5.4-18.3-5.4Z" fill="#fff"/>
		<path fill-rule="evenodd" clip-rule="evenodd" d="M166.2 65c1.4 1 3.6 1.3 6.2 1.3 6 0 13.5-2 15-2.3h.2a.3.3 0 0 0 .2-.2c.4-.8 8-15.2 4.2-19.3-4-4.2-18.3-6.8-22-5.2-3.6 1.5-5.5 16.1-5.2 23.2a3 3 0 0 0 1.4 2.4Zm4-25.1a8 8 0 0 1 3-.4c5.5 0 15.3 2.2 18.3 5.4 3.3 3.6-3.5 17-4.2 18.4-1.6.5-16.4 4.3-20.7 1.2a2.5 2.5 0 0 1-1.1-2 63.1 63.1 0 0 1 1-13.6c1-5.1 2.4-8.4 3.8-9Z" fill="#231F20"/>
		<path d="M131.4 147a30.8 30.8 0 0 0 18.3-25.7l-10.3-11-14.1 27.3" fill="#fff"/>
		<path d="M131.4 147.4a.3.3 0 0 1 0-.6 30.7 30.7 0 0 0 18-25.4l-9.9-10.6-14 27a.3.3 0 0 1-.5-.4l14.1-27.3a.3.3 0 0 1 .3-.1h.3l10.3 11.1v.3a31.3 31.3 0 0 1-18.6 26Z" fill="#231F20"/>
		<path d="m163.4 164 31.1-.6-.4-39.2-45.8 1.6L142 164h21.4Z" fill="#231F20"/>
		<path fill-rule="evenodd" clip-rule="evenodd" d="M142 164.3h21.4l31.1-.7a.3.3 0 0 0 .3-.3l-.4-39.1a.3.3 0 0 0-.1-.2.3.3 0 0 0-.2-.1l-45.8 1.6a.3.3 0 0 0-.3.3l-6.3 38.1v.3a.3.3 0 0 0 .3 0Zm21.4-.7h-21l6.2-37.5 45.2-1.6.4 38.5-30.8.7Z" fill="#231F20"/>
		<path d="M200.5 80.7c-2.8-3.7-9.4-5.7-14-6.5-4.3-.6-8.6 0-13-.3-4-.3-7.9.1-11.8 1.1-14.4 4-28 25-28 25l14.9.7s-2.2 15.5-8.3 49.3c25.6.9 55.5 3.5 55.5 3.5l.4-14c2.4-2.2 2.3-5.7 2.7-7.7.5-2.5-.6-30.4-.6-30.4l3.4-1.3s0-17.7-1.2-19.4Z" fill="#E7816B"/>
		<path d="m166 80.3-11.3 74 13.5 1.3 15.3-75.4-17.5.1Z" fill="#231F20"/>
		<path fill-rule="evenodd" clip-rule="evenodd" d="m168.2 156 .3-.3 15.3-75.4V80a.3.3 0 0 0-.3-.1L166 80a.3.3 0 0 0-.3.3l-11.3 74a.3.3 0 0 0 0 .2h.3l13.5 1.4Zm-.2-.7-13-1.3 11.2-73.4 16.8-.1-15.1 74.8Z" fill="#231F20"/>
		<path d="m168 71-2 9.3s2.1 6.2 8.4 5.5a12.5 12.5 0 0 0 9-5.6l2.3-17s-4.2-3-1.5-12.6a30.3 30.3 0 0 1-16 0S164 61 164 65.7c.1 4.8 3.9 5.5 3.9 5.5Z" fill="#fff"/>
		<path d="M167.3 75.7a8 8 0 0 0 6.4-1.2c3-2.2 3-3.7 3-3.7s-4.6 1.8-8.5.5l-1 4.4Z" fill="#231F20"/>
		<path fill-rule="evenodd" clip-rule="evenodd" d="M167.2 76a8 8 0 0 0 6.7-1.2c3.1-2.3 3.1-4 3.1-4a.3.3 0 0 0-.1-.3.3.3 0 0 0-.3 0s-4.6 1.7-8.3.5a.3.3 0 0 0-.2 0 .3.3 0 0 0-.2.2l-1 4.4a.3.3 0 0 0 .3.4Zm6.3-1.7a7.6 7.6 0 0 1-5.9 1.2l.9-3.8c3 .9 6.5 0 7.8-.4-.3.6-1 1.6-2.8 3Z" fill="#231F20"/>
		<path d="M173.6 57.2s-4 4.2-3.4 5.1c.6 1 2.8.8 2.8.8" fill="#fff"/>
		<path style="fill:#231f20" d="M170.7 55.3c-.4 0-.7.4-1 .8-.1.6 0 1.2.4 1.3.4.2 1-.1 1.1-.7.3-.6.1-1.2-.3-1.3a.6.6 0 0 0-.2 0zm2.7 1.4a.3.3 0 0 0-.3 0c-1.2 1.4-4 4.5-3.3 5.6.5.8 1.8.9 2.5.9h.5a.3.3 0 0 0 .3-.4.3.3 0 0 0-.4-.3c-.5 0-2 0-2.4-.6-.3-.3 1.3-2.6 3.3-4.7a.3.3 0 0 0 0-.4.3.3 0 0 0-.3-.1zm5.5 0c-.4 0-.7.3-1 .7-.2.6 0 1.2.4 1.4.4.1 1-.2 1.1-.8.3-.5.1-1.1-.3-1.3a.6.6 0 0 0-.2 0zm-11 5.2a.3.3 0 0 0-.3.3s0 5 4.2 6c.4.2.7.2 1 .2 3.7 0 5.4-5.4 5.5-5.7a.3.3 0 0 0 0-.3.3.3 0 0 0-.6.1s-1.9 6.1-5.7 5.2c-3.8-1-3.7-5.3-3.7-5.5a.3.3 0 0 0-.3-.3zm-2.1 18.6c0 .2 2 5.7 7.7 5.7a12.7 12.7 0 0 0 10.3-5.9l2.2-17.1a.3.3 0 0 0-.1-.3s-4-3-1.5-12.2a.3.3 0 0 0-.4-.4 30.3 30.3 0 0 1-15.8 0 .3.3 0 0 0-.3.3 56 56 0 0 0-4.1 15c0 4.2 2.9 5.4 3.8 5.7l-1.9 9a.3.3 0 0 0 0 .2zm8.5 5c-5.6.6-7.6-4.4-7.9-5.2l1.9-9.1a.3.3 0 0 0 0-.3.3.3 0 0 0-.2-.1c-.3 0-3.6-.7-3.7-5.1 0-4.2 3.2-12.6 3.9-14.5a31.5 31.5 0 0 0 15.4 0c-2.1 8.2.9 11.5 1.7 12.1l-2.2 16.8a12.3 12.3 0 0 1-8.9 5.4z"/>
		<path d="M182.2 62.4a4 4 0 0 1 1.6-2 7 7 0 0 1 2.3-.7 3 3 0 0 1 1.3-.1l.8.4a3.1 3.1 0 0 1 1.2 1.8 5 5 0 0 1-.1 1.7l-.7 1.8a4.8 4.8 0 0 1-6.7 1.6" fill="#fff"/>
		<path d="M184.4 67.6a5.2 5.2 0 0 1-2.7-.7.3.3 0 0 1 0-.6h.3a4.6 4.6 0 0 0 6.2-1.5 5 5 0 0 0 .7-1.7c.2-.5.2-1 .2-1.6a2.8 2.8 0 0 0-1.2-1.5l-.7-.4a2.8 2.8 0 0 0-1.1 0 7 7 0 0 0-2.2.8 3.7 3.7 0 0 0-1.5 1.8.3.3 0 0 1-.6-.3c.3-.8 1-1.5 1.7-2 .8-.4 1.6-.7 2.4-.8.5-.2 1-.2 1.5-.1l1 .5a3.4 3.4 0 0 1 1.3 1.9 4 4 0 0 1-.2 1.9 7.5 7.5 0 0 1-.7 1.8 5.2 5.2 0 0 1-4.4 2.5z" fill="#231f20"/>
		<path d="m37 83 23.3 26 32.5 11.4-4.1 8.6s-21.2-3.2-29.5-4.2c-8.3-.9-18.8-13.4-18.8-13.4L37 83Z" fill="#fff"/>
		<path fill-rule="evenodd" clip-rule="evenodd" d="M88.6 129.3a.3.3 0 0 0 .3-.2l4.2-8.6a.3.3 0 0 0 0-.3.3.3 0 0 0-.2-.2l-32.5-11.3-23.2-26a.3.3 0 0 0-.3 0 .3.3 0 0 0-.2.3l3.4 28.5v.1c.5.5 10.7 12.6 19 13.5 6.2.7 19.7 2.7 26 3.6l3.5.6Zm-29.4-4.8c-7.7-.8-17.7-12.2-18.5-13.2l-3.3-27.4L60 109.2a.3.3 0 0 0 .2 0l32.2 11.3-4 8.1a1243 1243 0 0 0-29.2-4Z" fill="#231F20"/>
		<path d="M48.3 70c-.3-2.1-1.2-4.2-1.9-6.3-1.6-5-1.9-10.3-3.7-15.3-2.2-6.5-6.6-11.3-14.1-11a7.7 7.7 0 0 0-7.2 4.8c-3.6-2-8.3 2-8.5 5.7-.3 5.4 0 10-2.3 15.2-1.8 3.9-4.5 7.5-4.8 11.8-.2 4.3 2.2 8.3 5.7 10.7a19 19 0 0 0 12 2.8 40 40 0 0 0 12.3-3.2 31.5 31.5 0 0 0 5.5-2.8c4-2.6 7.8-7.3 7-12.3Z" fill="#fff"/>
		<path fill-rule="evenodd" clip-rule="evenodd" d="M11.3 85.8a18.7 18.7 0 0 0 10.5 3h1.8c4.6-.4 9-2 12.2-3.3a31.2 31.2 0 0 0 5.6-2.8c4-2.7 8-7.4 7.2-12.7a26 26 0 0 0-1.3-4.8l-.6-1.5a58.4 58.4 0 0 1-1.7-7.5 56.7 56.7 0 0 0-2-8c-2.6-7.5-7.6-11.3-14.5-11.1a8 8 0 0 0-7.2 4.6 5.2 5.2 0 0 0-4.8.5 7.5 7.5 0 0 0-4 5.7v.3a54 54 0 0 0 0 2.5 29 29 0 0 1-2.2 12.2 56.6 56.6 0 0 1-1.6 3.2c-1.5 2.8-3 5.6-3.2 8.8a13 13 0 0 0 5.8 11Zm5.5-43.1a5.3 5.3 0 0 1 2.6-.8 4 4 0 0 1 1.9.6.3.3 0 0 0 .2 0 .3.3 0 0 0 .2-.2 7.4 7.4 0 0 1 6.9-4.6c6.6-.2 11.3 3.4 13.9 10.8a54.6 54.6 0 0 1 1.8 7.8 59.3 59.3 0 0 0 1.8 7.5l.4 1.3.2.3c.5 1.5 1 3.1 1.3 4.7.7 5-3.1 9.5-7 12a30.9 30.9 0 0 1-5.4 2.8 39.6 39.6 0 0 1-12 3.2c-4.6.3-8.8-.6-12-2.8A12.2 12.2 0 0 1 6.2 75c.2-3 1.7-5.8 3.1-8.4a56.9 56.9 0 0 0 1.7-3.3c2-4.3 2-8.3 2.2-12.5V48c.2-2 1.6-4 3.7-5.2Z" fill="#231F20"/>
		<path d="M48.4 86.9a63.6 63.6 0 0 0-.8-3c-.9-2.8-1.8-6.7-3.8-8.9-3.1-3.5-10.2-3.6-14.5-3.6-6.7 0-13.5 1.5-19 5.3-8.4 6-10 14.5-9 24a878.8 878.8 0 0 0 4 32c.1 1.2 2 17.4 2.7 17.4.1 0 55.4 0 53.7 1.4-2.5-8.7-4.4-17.4-6.4-26.1-.4-1.9-1.2-3.6-1.6-5.4-.7-2.6-.4-5.5-.7-8.2-.5-6.2-1.8-12.3-3.1-18.4a152.3 152.3 0 0 0-1.5-6.5Z" fill="#E7816B"/>
		<path d="m64.1 164.2-6.3-27.8-51.3 4.2-.6 23.6H64Z" fill="#231F20"/>
		<path fill-rule="evenodd" clip-rule="evenodd" d="M5.9 164.5H64a.3.3 0 0 0 .3-.4L58 136.3a.3.3 0 0 0-.3-.2l-51.2 4.2a.3.3 0 0 0-.3.3l-.6 23.6v.2H6Zm57.8-.6H6.2l.6-23 50.7-4.2 6.2 27.2Z" fill="#231F20"/>
		<path d="m33.7 94.8.5.1c1.2.1 2.1-1 2.6-2 1-2.4 1-5.1.9-7.7a12 12 0 0 0-1-4.4 10 10 0 0 0-2.2-3 11 11 0 0 0-6-3c-2.2-.3-5.5 1-6.2 3.4-.7 2.6 2 5.3 3.4 7.3a79 79 0 0 0 6.5 8c.4.6 1 1 1.5 1.3Z" fill="#231F20"/>
		<path fill-rule="evenodd" clip-rule="evenodd" d="M34.2 95.2h.2c1.6 0 2.4-1.7 2.7-2.2a16 16 0 0 0 .9-7.8 12.4 12.4 0 0 0-1-4.6 10.2 10.2 0 0 0-2.3-3c-2-1.8-4-2.8-6.1-3-2.6-.4-5.9 1-6.6 3.5-.6 2.3 1.2 4.6 2.6 6.4l1 1.2a81 81 0 0 0 6.3 8c.5.6 1 1 1.7 1.4l.6.1Zm0-.6-.4-.1a4 4 0 0 1-1.4-1.2 78.8 78.8 0 0 1-6.4-8 86.8 86.8 0 0 0-1-1.3c-1.3-1.6-2.9-3.8-2.4-5.7.6-2.2 3.6-3.5 5.9-3.2a10 10 0 0 1 5.7 3c1 .8 1.7 1.7 2.2 2.8.6 1.4 1 2.8 1 4.3.2 2.4.2 5.2-.9 7.5-.4 1-1.2 2-2.2 1.9Z" fill="#231F20"/>
		<path fill="#fff" d="M60.6 45.3H148v93.2H60.6z"/>
		<path fill-rule="evenodd" clip-rule="evenodd" d="M60.6 138.8H148c.1 0 .3-.1.3-.3V45.3a.3.3 0 0 0-.3-.3H60.6a.3.3 0 0 0-.3.3v93.2c0 .2.1.3.3.3Zm87.2-.6h-87V45.6h86.8v92.6Z" fill="#231F20"/>
		<path style="fill:#fff" d="M66.2 52.4h76.2V121H66.2Z"/>
		<path style="fill:#e7816b" d="M119.7 61.3c-.4 0-.6.3-.8 1a14.7 14.7 0 0 0-.1 2.4V70h-1.5c-2.8 0-5.6.4-8.4 1.3a17.7 17.7 0 0 0-12.5 21.1c.6 2 1.3 4 2.3 6 .3.4.8.7 1.3.6.8-.2.4-.8.3-1.4a13 13 0 0 1-.5-3.4c0-4.3 2.5-8.3 6.2-10.3a21 21 0 0 1 10-2.7h2.8v7.1c0 .7.4 1.2.8 1.6.4.2 1.1-.3 1.6-.6.2 0 .3-.2.4-.3l9-9 3.3-3.6V75l-1-1.4-11.4-11.4a4.4 4.4 0 0 0-1-.8 1.5 1.5 0 0 0-.8-.2zM90 68h-2.3a8.8 8.8 0 0 0-8.9 8.9v24.7a9 9 0 0 0 2.2 5.8 10 10 0 0 0 5.5 3.1h33.3c3.8-.8 6.7-3.3 7.1-7 .5-3.4.2-6.9.2-10.4 0-.8-1-1.4-1.9-1.3-1 .2-1.5.8-1.5 2v7.8a5.3 5.3 0 0 1-5.5 5.4H87.7a5.3 5.3 0 0 1-5.3-5.2V76.9a5.3 5.3 0 0 1 5.4-5.3h4.5c1.2 0 2-.6 2-1.7 0-1-.8-1.8-2-1.8a94.9 94.9 0 0 0-2.3 0z"/>
		<path style="fill:#fff" d="M73.4 128.7a3.6 3.6 0 0 1-3.6 3.6 3.6 3.6 0 0 1-3.6-3.6 3.6 3.6 0 0 1 3.6-3.5 3.6 3.6 0 0 1 3.6 3.5z"/>
		<path style="clip-rule:evenodd;fill:#d1d3d4;fill-rule:evenodd" d="M69.9 124.8a3.9 3.9 0 0 0-3.7 5.4 3.9 3.9 0 1 0 3.7-5.4zm0 .7a3.3 3.3 0 1 1 0 6.5 3.3 3.3 0 0 1 0-6.5zm7.4 1.7a.3.3 0 0 0 0 .6H142a.3.3 0 1 0 0-.6zm0 4.8a.3.3 0 0 0-.3.3c0 .2.2.3.3.3h48.5a.3.3 0 1 0 0-.6zm-11-79.9a.3.3 0 0 0-.4.3V121c0 .2.2.3.3.3h76.4a.3.3 0 0 0 .1-.3V52.4a.3.3 0 0 0-.3-.3zm.2.6h75.6v67.9H66.5Z"/>
		<path d="M40.2 51.2s3.1 7.3 2.2 13a8.3 8.3 0 0 1-6 6.8l.7 10s.4 5-6 4.7a10.8 10.8 0 0 1-8.7-5.7l-2-18.2s7-4.6 5.9-11.1c0 0 8.7 3.5 13.9.5Z" fill="#fff"/>
		<path d="M36.5 71s-5.3 1-8.4.5c0 0 3.8 7.6 8.9 7.2l-.5-7.7Z" fill="#231F20" style="stroke:#000;stroke-opacity:1;stroke-width:.5;stroke-dasharray:none;fill:#231f20;fill-opacity:1"/>
		<path style="fill:#231f20" d="M39.8 56.2a.8 1.4 0 0 0-.8 1.4.8 1.4 0 0 0 .8 1.4.8 1.4 0 0 0 .8-1.4.8 1.4 0 0 0-.8-1.4zm-6.8-.5a.8 1.4 0 0 0-.8 1.3.8 1.4 0 0 0 .8 1.4.8 1.4 0 0 0 .8-1.4.8 1.4 0 0 0-.8-1.3zm3.2 2.4h-.3a.3.3 0 0 0 0 .5c1.1 1.7 2.7 4.5 2.5 5.3-1 .4-3-.2-3-.2a.3.3 0 0 0-.4.2.3.3 0 0 0 .2.4l1.5.3a3.8 3.8 0 0 0 2-.2.7.7 0 0 0 .3-.4c.4-1.2-2.1-5-2.6-5.8a.3.3 0 0 0-.2-.1zm-6 2.6H30a.3.3 0 0 0-.4.3c0 3 .8 5 2.3 5.8.4.2.8.4 1.2.4 1 0 2-.1 2.8-.6a.3.3 0 1 0-.3-.5s-2 1-3.4.1c-1.2-.7-1.9-2.5-2-5.2a.3.3 0 0 0-.2-.3zm-2.5 25h.7c1.8.2 3.3-.1 4.4-1a5 5 0 0 0 1.7-3.4l.6-9.7a8.7 8.7 0 0 0 6.7-6.3 28 28 0 0 0-.7-13.3.3.3 0 0 0-.1-.2.3.3 0 0 0-.3 0c-5 2.1-12.2-1.5-13.3-2a2 2 0 0 0-.2-.1.3.3 0 0 0-.3 0 .3.3 0 0 0-.1.3c.2 6.3-6.9 10-7 10a.3.3 0 0 0-.1.2l-.3 18.4a11.2 11.2 0 0 0 8.3 7zm.2-.7a10.5 10.5 0 0 1-7.9-6.4l.3-18.1c1.1-.6 7-4.2 7.1-10 1.8.9 8.4 3.9 13.3 2 .4 1.6 1.9 8 .5 12.7a8 8 0 0 1-6.4 5.8.3.3 0 0 0-.3.3l-.6 10a4.4 4.4 0 0 1-1.5 3c-1 .8-2.6 1-4.5.7z" transform="rotate(-6.8 33 57)"/>
		<path d="M23.9 60.3S20.3 53.5 17 58c-3.1 4.6 2.2 9 5.3 8.5" fill="#fff"/>
		<path d="M21.8 67a6.6 6.6 0 0 1-5-3 5 5 0 0 1 .1-6c.9-1.3 1.8-1.8 2.9-1.8 2.4.2 4.3 3.7 4.4 4a.3.3 0 0 1-.6.2s-1.8-3.4-4-3.6c-.8 0-1.5.5-2.2 1.5a4.5 4.5 0 0 0-.1 5.3c1.1 1.8 3.4 3 5 2.7.2 0 .3 0 .4.2a.3.3 0 0 1-.3.4 3.7 3.7 0 0 1-.6 0Z" fill="#231F20"/>
		<path d="m118 138.8-.2-2a11.5 11.5 0 0 1 .7-4.3 3 3 0 0 1 1-1.5c.5-.4 1.2-.4 1.6 0 .3.6.3 1.1.1 1.7a13 13 0 0 0-.2 4.4c.2-2 .5-4 1.5-5.7l1-1c.4-.2.9-.2 1.2 0 .6.4.6 1.3.5 2-.2 1.7-.2 3.4 0 5.1a14.9 14.9 0 0 1 .4-4.5c.2-1 .7-2 1.6-2.4h.6c.5.1.8.5.9 1v1.3c-.2 1.8-.2 3.5.1 5.3a12.6 12.6 0 0 1 .2-4.6c.1-.6.3-1.2.7-1.7.4-.5 1-.6 1.6-.4.4.2.7.6.8 1v1.5a12.7 12.7 0 0 0 1 5.1c.6 1.4 1.3 3 1.2 4.4a4.4 4.4 0 0 1-2.9 3.6c-1.5.5-3.1.6-4.7.2-5.1-1-9.4-3.5-11.2-8.4" fill="#fff"/>
		<path d="M128.9 147.9c-.8 0-1.5-.1-2.2-.3-6-1.1-9.8-4-11.5-8.6a.3.3 0 0 1 .6-.2c1.6 4.3 5.3 7 11 8.2a8 8 0 0 0 4.5-.2 4.1 4.1 0 0 0 2.7-3.3 8 8 0 0 0-1-3.8l-.1-.4a13.2 13.2 0 0 1-1-5.3v-1.3c-.1-.4-.4-.7-.7-1-.4 0-1 .1-1.2.5a3 3 0 0 0-.7 1.5 12 12 0 0 0-.1 4.5c0 .1-.1.3-.3.3a.3.3 0 0 1-.3-.2 19.5 19.5 0 0 1-.2-5.4v-1.2a1 1 0 0 0-.6-.7.9.9 0 0 0-.5 0c-.6.2-1.1 1-1.4 2.1a14.5 14.5 0 0 0-.3 4.5.3.3 0 0 1-.6 0 22.9 22.9 0 0 1-.1-5.3c0-.6 0-1.3-.3-1.6a1 1 0 0 0-1 0c-.3.2-.6.5-.8.9-1 1.6-1.3 3.7-1.5 5.6a.3.3 0 0 1-.3.2.3.3 0 0 1-.3-.2 13.2 13.2 0 0 1 .2-4.5c.2-.5.2-1 0-1.4a.6.6 0 0 0-.4-.2 1 1 0 0 0-.8.2c-.4.3-.7.8-.9 1.4-.4 1.3-.7 2.7-.6 4.1v.6l.2 1.5-.3.3a.3.3 0 0 1-.3-.2l-.2-1.6v-.5a11.6 11.6 0 0 1 .7-4.4 3.3 3.3 0 0 1 1-1.7c.4-.3.8-.4 1.3-.3.3 0 .6.2.8.5.3.5.4 1.2.1 1.8v.1l.8-1.6c.3-.4.6-.8 1-1a1.5 1.5 0 0 1 1.7 0c.6.5.6 1.3.6 2a2.7 2.7 0 0 1 1.6-1.8c.2-.1.5-.1.8 0 .6.1 1 .6 1 1.2l.1.8.4-.6c.5-.6 1.3-.8 2-.5.6.2 1 .7 1 1.3v1.4c0 1.8.4 3.5 1 5l.2.5a8.8 8.8 0 0 1 1 4.1 4.7 4.7 0 0 1-3 3.8c-1 .3-1.9.4-2.8.4Z" fill="#231F20"/>
		<path d="m183.2 104.1-1 14.3s-29.2-23-34.1-24v4s-8.2-1-8.8.7c-.7 1.6.4 7.7 2.5 9 1.3.7 11.8.8 11.8.8s1.5 3.6 16 17c14.5 13.3 28.1 20.4 29 8l2-33.6" fill="#fff"/>
		<path d="M193.2 140.6c-5.1 0-13.6-5.1-23.8-14.5a88.8 88.8 0 0 1-16-17c-1.7 0-10.5 0-11.7-.8-2.3-1.3-3.4-7.6-2.7-9.4.7-1.7 6.8-1 8.7-.8v-3.7c0-.1 0-.2.2-.3a.3.3 0 0 1 .2 0c4.7.9 29.9 20.6 33.8 23.6l1-13.6a.3.3 0 1 1 .6 0l-1 14.3a.3.3 0 0 1-.2.3.3.3 0 0 1-.3 0c-.3-.3-27.9-22-33.6-23.9v3.6a.3.3 0 0 1-.4.3c-3.2-.4-8-.5-8.4.5-.6 1.4.5 7.4 2.4 8.6a61 61 0 0 0 12 1s1.7 3.8 15.8 16.8c11.7 10.7 20.9 15.8 25.4 14 1.8-.7 2.9-2.7 3-5.8a2650.8 2650.8 0 0 0 2.1-33.8.3.3 0 0 1 .2 0h.3v.3c0 .2-1 21.2-1.9 33.5-.2 3.4-1.4 5.6-3.5 6.4a5.9 5.9 0 0 1-2.2.4Z" fill="#231F20"/>
		<path d="M20 92.6s12 22.3 12.3 23.2c.1.3 24.8-13 25.7-14.7-.3-2-.1-4 .5-6 .4-1 1.2-1.2 2-2a29.8 29.8 0 0 0 0 4 46.2 46.2 0 0 1 5.3-4.8c.4-.4 1-.6 1.6-.5l.6.6c2.5 3.5.4 7.9-1.4 11.2-3.5 6.3-8.6 10.2-14.1 14.7a136.4 136.4 0 0 1-11.4 8.1 56.9 56.9 0 0 1-9.7 5.3c-2 .8-4.8 1.8-7 .8-7.8-3.6-16.7-22-19.2-30.2" fill="#fff"/>
		<path d="M26.5 133.3a5 5 0 0 1-2.2-.5c-4.4-2-8.8-8.5-11.7-13.5A89.1 89.1 0 0 1 5 102.4a.3.3 0 0 1 .6-.2c2.4 8.4 11.4 26.6 19 30 2 1 4.5 0 6.7-.8a56.9 56.9 0 0 0 9.6-5.2c4-2.6 7.8-5.3 11.4-8.2l1-.8c5-4 9.8-7.9 13-13.7 2-3.6 3.8-7.6 1.5-11a1.2 1.2 0 0 0-.5-.4c-.4-.2-1 .1-1.3.4a47.3 47.3 0 0 0-5.3 4.8.3.3 0 0 1-.5-.2 38.6 38.6 0 0 1 0-3.3l-.3.2a2.4 2.4 0 0 0-1 1.2 12.4 12.4 0 0 0-.6 5.9.3.3 0 0 1 0 .1 183.4 183.4 0 0 1-26 14.8.3.3 0 0 1-.3-.1c-.2-.7-8.1-15.4-12.2-23a.3.3 0 1 1 .5-.4c.5.9 11 20.3 12.2 23 2.7-1.2 23.8-12.8 25.1-14.5-.2-2 0-4.1.7-6a3 3 0 0 1 1.3-1.6l.8-.5a.3.3 0 0 1 .3 0l.2.3c-.1 1-.2 2.1-.1 3.1a47.2 47.2 0 0 1 4.8-4.3c.5-.4 1.2-.8 1.9-.6l.8.7c2.8 4 .1 8.7-1.4 11.6-3.3 6-8.1 9.9-13.3 14l-.9.7a135 135 0 0 1-11.4 8.2 57.5 57.5 0 0 1-9.7 5.3 16 16 0 0 1-5.2 1.4Z" fill="#231F20"/>
    </symbol>
    <symbol id="resource" viewBox="0 0 202 202">
		<path style="opacity:.2;fill:url(#a)" d="M0 101A101 101 0 0 1 101 0a101 101 0 0 1 101 101 101 101 0 0 1-101 101 101 101 0 0 1-63.654-22.598h22.742v-42.964H29.805v36.193A101 101 0 0 1 0 101zm25.691 0v30.049h19.924V101H25.691zm19.93 0v30.049h3.943V101h-3.943z" transform="matrix(0 1 1 0 0 0)"/>
		<path d="M192.03 166.454H9.97a.355.355 0 0 1 0-.711h182.06c.196 0 .354.159.354.355a.354.354 0 0 1-.354.356Z" fill="#D1D3D4"/>
		<path d="m143.709 83.826 8.047 16.221h-21.762l13.715-16.22Z" fill="#231F20"/>
		<path fill-rule="evenodd" clip-rule="evenodd" d="M130.015 100.403h21.741a.344.344 0 0 0 .332-.511l-8.039-16.221a.354.354 0 0 0-.276-.192.33.33 0 0 0-.311.12l-13.716 16.222a.35.35 0 0 0 .269.582Zm21.167-.71h-20.424l12.873-15.22 7.551 15.22Z" fill="#231F20"/>
		<path d="M81.906 100.048h51.811l18.796-27.654h-48.909l-21.698 27.654Z" fill="#231F20"/>
		<path fill-rule="evenodd" clip-rule="evenodd" d="M81.892 100.403h51.825a.346.346 0 0 0 .297-.156L152.81 72.6a.347.347 0 0 0 0-.37.368.368 0 0 0-.311-.19H103.59a.34.34 0 0 0-.276.134L81.616 99.828a.356.356 0 0 0 .276.575Zm51.662-.71H82.635l21.139-26.943h48.095l-18.315 26.943Z" fill="#231F20"/>
		<path d="M105.161 75.08 89.677 95.224h38.449l14.55-20.144h-37.515Z" fill="#fff"/>
		<path fill-rule="evenodd" clip-rule="evenodd" d="M89.677 95.579h38.449a.347.347 0 0 0 .269-.15l14.55-20.143a.351.351 0 0 0 0-.37.34.34 0 0 0-.311-.191h-37.508a.347.347 0 0 0-.276.135L89.359 95.003a.378.378 0 0 0 0 .377.353.353 0 0 0 .318.199Zm38.229-.71H90.399l14.939-19.448h36.644l-14.076 19.447Z" fill="#231F20"/>
		<path d="M116.173 91.557a.355.355 0 0 1-.333-.242c-1.861-5.506-4.451-11.546-5.392-11.688-1.126 0-8.344 5.99-14.756 11.845a.355.355 0 0 1-.587-.185.358.358 0 0 1 .106-.341c2.222-2.025 13.269-12.022 15.3-12.022h.078c1.812.277 5.018 9.379 5.959 12.164a.349.349 0 0 1-.226.448.292.292 0 0 1-.149.021Z" fill="#D1D3D4"/>
		<path d="M127.722 92.296a.353.353 0 0 1-.339-.262c-1.246-4.441-3.022-9.18-3.857-9.43-.835-.248-4.713 3.27-7.87 6.651a.354.354 0 0 1-.502.015.357.357 0 0 1-.014-.505c1.613-1.726 6.992-7.318 8.591-6.835 1.599.483 3.892 8.341 4.331 9.947a.355.355 0 0 1-.24.44l-.1-.02Z" fill="#D1D3D4"/>
		<path fill-rule="evenodd" clip-rule="evenodd" d="M137.538 85.127c0 .532.687.952 1.557.952.87 0 1.557-.42 1.557-.952 0-.533-.708-.945-1.557-.945s-1.557.412-1.557.945Zm.142 0c0-.42.665-.768 1.415-.768v.022c.75 0 1.38.326 1.38.746 0 .419-.594.774-1.38.774-.786 0-1.415-.355-1.415-.774Z" fill="#A7A9AC"/>
		<path d="M145.28 78.021h-3.142a.093.093 0 0 1-.085-.085c0-.048.037-.089.085-.092h3.142a.085.085 0 0 1 .085.092.085.085 0 0 1-.085.085Z" fill="#A7A9AC"/>
		<path d="M133.717 100.403a.375.375 0 0 1-.213-.064.364.364 0 0 1-.078-.497l10.035-13.827a.356.356 0 0 1 .496-.078.364.364 0 0 1 .078.497L134 100.29a.36.36 0 0 1-.283.114Z" fill="#fff"/>
		<path fill-rule="evenodd" clip-rule="evenodd" d="M114.616 78.647a1.56 1.56 0 0 0 1.557 1.563c.86 0 1.557-.7 1.557-1.563a1.56 1.56 0 0 0-1.557-1.563c-.86 0-1.557.7-1.557 1.563Zm.708 0a.85.85 0 0 1 1.451-.605c.16.16.249.378.247.605a.85.85 0 0 1-.849.853.85.85 0 0 1-.849-.853Z" fill="#D1D3D4"/>
		<path style="fill:#fff;stroke:#231f20;stroke-width:.7;stroke-linejoin:round" d="M18.773 100.65v6.801h159.74v-6.8zm5.4 6.801V174.2h40.643v-66.748zm111.972 0V174.2h40.642v-66.748z"/>
		<path d="M78.856 137.436c.149.504-8.79 32.719-8.79 32.719l12.492 2.018 14.762-44.507-18.464 9.77Z" fill="#fff"/>
		<path fill-rule="evenodd" clip-rule="evenodd" d="M82.5 172.529h.058a.347.347 0 0 0 .332-.235l14.77-44.507a.378.378 0 0 0-.106-.384.367.367 0 0 0-.397-.042l-18.463 9.769a.356.356 0 0 0-.192.341c-.099 1.066-5.293 20.044-8.782 32.592a.416.416 0 0 0 .042.292.365.365 0 0 0 .248.156l12.49 2.018Zm-.169-.753-11.804-1.912h-.014c5.364-19.34 8.272-30.147 8.662-32.187l17.55-9.279-14.394 43.378Z" fill="#231F20"/>
		<path d="m69.31 168.763-1.904 6.011 29.914 2.323a12.455 12.455 0 0 0-6.794-6.146c-3.107-1.094-6.454-2.401-6.454-2.401l-1.514 3.623-13.248-3.41Z" fill="#231F20"/>
		<path fill-rule="evenodd" clip-rule="evenodd" d="m67.406 175.13 29.914 2.323a.339.339 0 0 0 .368-.149.356.356 0 0 0 0-.348 12.752 12.752 0 0 0-6.999-6.338 230.314 230.314 0 0 1-5.75-2.132c-.43-.164-.687-.263-.697-.263a.346.346 0 0 0-.453.192l-1.415 3.34-12.951-3.333a.353.353 0 0 0-.425.235l-1.904 6.011a.355.355 0 0 0 .312.462Zm29.305 1.57-28.838-2.245 1.67-5.244 12.923 3.311a.361.361 0 0 0 .417-.213l1.38-3.297.122.047c1.015.387 3.606 1.375 6.028 2.227a12.149 12.149 0 0 1 6.298 5.414Z" fill="#231F20"/>
		<path d="m48.312 137.862-2.123 33.935s-7.176.249-8.973 1.513c-1.798 1.265-3.263 6.992-3.263 6.992h2.237s1.302-4.263 2.731-4.775c1.43-.511 9.554-.71 9.554-.71s3.92 1.52 4.55 4.128c.496 2.053.354 2.529.354 2.529h2.477a12.74 12.74 0 0 0-.495-3.453c-.495-1.421-2.357-3.119-2.357-3.119s4.098.085 5.464.085c1.366 0 2.788 2.615 2.788 2.615h2.668s-2.788-4.718-4.593-5.052c-1.805-.334-6.433-1.144-6.433-1.144l-1.26-31.618-3.326-1.926Z" fill="#231F20"/>
		<path fill-rule="evenodd" clip-rule="evenodd" d="M53.408 181.836h2.477a.354.354 0 0 0 .346-.348 12.695 12.695 0 0 0-.516-3.552 8.2 8.2 0 0 0-1.812-2.622l.664.011c1.314.022 3.108.053 3.922.053.835 0 1.967 1.492 2.477 2.43a.363.363 0 0 0 .311.185h2.668a.363.363 0 0 0 .312-.54c-.29-.498-2.93-4.86-4.827-5.216a528.15 528.15 0 0 0-6.157-1.094l-1.252-31.334a.347.347 0 0 0-.177-.291l-3.355-1.94a.359.359 0 0 0-.34 0 .368.368 0 0 0-.184.291l-2.08 33.622c-1.444.064-7.183.398-8.846 1.563-1.883 1.322-3.34 6.956-3.397 7.191a.364.364 0 0 0 .34.448h2.257a.363.363 0 0 0 .34-.256c.481-1.571 1.592-4.199 2.512-4.541 1.111-.447 7.07-.66 9.37-.71.467.199 3.715 1.627 4.246 3.851.242.755.364 1.544.361 2.338a.37.37 0 0 0 .05.319.38.38 0 0 0 .29.142Zm2.102-.71h-1.734a11.86 11.86 0 0 0-.41-2.274c-.666-2.757-4.6-4.306-4.77-4.369h-.135c-.333 0-8.33.22-9.674.71-1.345.49-2.505 3.752-2.831 4.753h-1.515c.503-1.804 1.734-5.449 3.008-6.345 1.401-.959 6.815-1.35 8.783-1.421a.354.354 0 0 0 .34-.334l2.059-33.394 2.689 1.556 1.238 31.419c.005.171.13.314.298.341.056.007 4.65.803 6.425 1.137 1.19.22 3.072 2.849 4.02 4.349h-1.826c-.382-.661-1.642-2.615-2.993-2.615-1.148 0-4.252-.062-5.187-.08l-.27-.005a.381.381 0 0 0-.34.227.364.364 0 0 0 .093.391l.01.01c.152.141 1.813 1.684 2.254 2.96.287.969.444 1.973.468 2.984Z" fill="#231F20"/>
		<path d="M89.231 116.22s28.265 1.513 30.049 5.556c1.783 4.043-11.323 48.501-11.323 48.501s13.835 4.803 11.57 5.812c-2.264 1.009-24.91-1.009-24.91-1.009l10.735-41.211-27.968-1.89 11.847-15.759Z" fill="#fff"/>
		<path fill-rule="evenodd" clip-rule="evenodd" d="M94.61 175.434c1.818.164 14.72 1.293 21.358 1.293a12.979 12.979 0 0 0 3.743-.312.659.659 0 0 0 .46-.64c-.056-1.456-7.982-4.405-11.74-5.719 1.288-4.37 12.944-44.451 11.196-48.423-.298-.675-1.196-2.714-15.98-4.504a236.933 236.933 0 0 0-14.38-1.265.304.304 0 0 0-.298.142l-11.854 15.788a.349.349 0 0 0-.042.362c.058.114.17.192.297.206l27.544 1.862-10.616 40.763a.362.362 0 0 0 .05.298c.061.086.157.14.262.149Zm24.797.327c-1.748.782-17.756-.419-24.323-1.002l10.629-40.763a.405.405 0 0 0-.056-.298.36.36 0 0 0-.269-.142l-27.317-1.855 11.323-15.112c7.94.433 28.138 2.117 29.553 5.336 1.416 3.218-7.7 35.931-11.323 48.259a.355.355 0 0 0 .219.44c5.28 1.826 11.097 4.277 11.564 5.137Z" fill="#231F20"/>
		<path d="M79.642 90.953s14.522 18.189 20.728 17.685c6.207-.505 23.984-22.929 23.984-22.929 3.213-3.851 6.808-8.74 4.508-14.047-.227-.512-.623-1.059-1.175-1.016a1.496 1.496 0 0 0-.644.263l-1.981 1.222c.063-.547-.63-.938-1.161-.789-.517.203-.947.58-1.217 1.066-2.06 2.942-3.39 5.741-3.277 9.365L98.629 92.43l-8.244-9.16" fill="#fff"/>
		<path d="M100.122 109c-6.447 0-20.169-17.052-20.756-17.827a.356.356 0 0 1 .074-.475.353.353 0 0 1 .478.035c.141.177 14.097 17.564 20.183 17.564h.241c5.987-.483 23.545-22.574 23.715-22.801 3.319-3.965 6.666-8.612 4.465-13.678-.085-.199-.382-.831-.821-.803a1.163 1.163 0 0 0-.488.213l-1.996 1.216a.353.353 0 0 1-.375-.002.358.358 0 0 1-.163-.34.284.284 0 0 0-.127-.262.705.705 0 0 0-.58-.142 2.125 2.125 0 0 0-1.026.93c-1.741 2.487-3.334 5.315-3.213 9.152a.356.356 0 0 1-.191.327L98.764 92.765a.353.353 0 0 1-.425-.079l-8.237-9.173a.356.356 0 0 1 .502-.504l8.053 8.939 20.347-10.41c-.064-3.929 1.564-6.82 3.34-9.357a2.767 2.767 0 0 1 1.415-1.208c.436-.105.895.003 1.239.291.095.083.176.182.24.291l1.586-.973a1.8 1.8 0 0 1 .806-.313c.616-.05 1.161.405 1.515 1.23 2.562 5.897-2.067 11.439-4.558 14.416-.707.91-17.918 22.545-24.21 23.057l-.255.028Z" fill="#231F20"/>
		<path d="M32.106 87.849s-7.48 17.017-4.706 18.836c2.774 1.818 19.66 0 19.66 0l-1.465-22.027" fill="#fff"/>
		<path d="M33.819 107.806c-3.022 0-5.662-.213-6.624-.852-.482-.313-1.954-1.272 1.182-10.487a121.667 121.667 0 0 1 3.404-8.761.355.355 0 1 1 .644.284c-2.831 6.473-6.667 17.18-4.841 18.367 2.123 1.421 14.154.483 19.108 0l-1.416-21.678a.355.355 0 1 1 .708-.05l1.465 22.026a.355.355 0 0 1-.319.377c-.495.028-7.629.774-13.311.774Z" fill="#231F20"/>
		<path d="M38.2 116.688s-3.66 8.157.24 13.301c3.9 5.144 58.03 5.763 58.03 5.763l3.886-19.533-22.646-3.098-1.316-6.757-38.195 10.324Z" fill="#fff"/>
		<path fill-rule="evenodd" clip-rule="evenodd" d="M68.885 135.155c13.899.788 27.465.952 27.6.952a.355.355 0 0 0 .347-.291l3.842-19.554a.332.332 0 0 0-.056-.27.338.338 0 0 0-.241-.149l-22.37-3.056-1.267-6.515a.35.35 0 0 0-.155-.228.33.33 0 0 0-.283-.042l-38.216 10.324a.347.347 0 0 0-.233.199c-.156.341-3.695 8.412.283 13.656 1.684 2.238 12.03 3.908 30.749 4.974Zm-30.162-5.379c-3.44-4.533-.729-11.66-.269-12.789l37.713-10.182 1.239 6.394a.356.356 0 0 0 .297.285l22.25 3.041-3.758 18.878c-18.747-.227-54.485-1.691-57.472-5.627Z" fill="#231F20"/>
		<path d="M60.378 47.974a4.875 4.875 0 0 1-1.415-1.294 7.507 7.507 0 0 1-1.132-2.522c-1.918-6.963-1.932-15.88 4.246-20.648a14.306 14.306 0 0 1 12.979-2.31c3 .981 5.548 5.124 6.886 7.817 1.097 2.181 1.84 4.554 3.142 6.615 1.302 2.06 3.376 3.865 5.81 3.986a7.305 7.305 0 0 1-6.37.383 4.146 4.146 0 0 0 4.212 1.585c-1.416 1.13-3.44 1.087-5.223.71-1.784-.376-3.539-.945-5.372-.71-2.83.32-4.67 2.409-6.885 3.922-2.81 1.847-7.665 4.334-10.878 2.465Z" fill="#fff"/>
		<path fill-rule="evenodd" clip-rule="evenodd" d="M60.216 48.286c.863.486 1.84.731 2.83.71 3.213 0 6.752-2.124 8.4-3.275a37.518 37.518 0 0 0 1.664-1.244l.21-.16c1.5-1.145 2.943-2.244 4.857-2.462 1.344-.074 2.691.08 3.984.455.425.1.85.2 1.274.277 2.392.462 4.246.192 5.513-.81a.356.356 0 0 0-.304-.625 3.738 3.738 0 0 1-2.775-.469 7.673 7.673 0 0 0 5.167-.846.342.342 0 0 0 .17-.39.347.347 0 0 0-.326-.27c-2.894-.142-4.82-2.715-5.527-3.816a28.141 28.141 0 0 1-1.953-3.993 44.468 44.468 0 0 0-1.168-2.6c-1.253-2.523-3.864-6.914-7.077-7.958a14.623 14.623 0 0 0-13.312 2.366c-7.749 5.997-5.286 17.607-4.352 21.017a7.93 7.93 0 0 0 1.189 2.672 5.07 5.07 0 0 0 1.536 1.42Zm2.045-24.52a14.003 14.003 0 0 1 8.535-2.9c1.41-.006 2.811.21 4.154.64 3.085 1.002 5.697 5.649 6.673 7.602.36.67.654 1.371.943 2.06l.21.498a28.071 28.071 0 0 0 2.01 4.093 8.648 8.648 0 0 0 4.89 3.958 7 7 0 0 1-4.995-.107.339.339 0 0 0-.41.107.357.357 0 0 0 0 .426 4.54 4.54 0 0 0 2.922 1.776 7.86 7.86 0 0 1-3.581 0 26.15 26.15 0 0 1-.94-.2l-.313-.07a12.428 12.428 0 0 0-4.246-.469c-2.2.249-3.843 1.528-5.428 2.764-.523.412-1.068.839-1.62 1.215-1.6 1.087-7.084 4.498-10.495 2.508a4.416 4.416 0 0 1-1.324-1.2 7.198 7.198 0 0 1-1.083-2.43c-.913-3.311-3.297-14.538 4.098-20.272Z" fill="#231F20"/>
		<path d="M79.557 42.914s1.932 6.068.92 6.928c-1.012.86-3.114-.49-3.114-.49" fill="#fff"/>
		<path d="M79.62 50.488a5.258 5.258 0 0 1-2.427-.838.356.356 0 1 1 .382-.597c.496.313 2.046 1.087 2.69.519.488-.42-.142-3.724-1.048-6.544a.363.363 0 0 1 .234-.448.354.354 0 0 1 .446.227c.467 1.478 1.917 6.395.828 7.305a1.61 1.61 0 0 1-1.104.376Z" fill="#231F20"/>
		<path d="M80.732 35.959c1.649 2.358 0 5.897-.708 8.306a227.481 227.481 0 0 1-3.163 10.096c-.708 2.132-6.285.59-7.077-.327l-1.515 8.747-11.726-4.071 3.772-10.61s3.772 1.095 7.169-2.678c3.397-3.773 5.76-13.394 5.76-13.394s5.881 1.62 7.488 3.93Z" fill="#fff"/>
		<path fill-rule="evenodd" clip-rule="evenodd" d="M68.149 63.136h.113a.317.317 0 0 0 .149-.05.334.334 0 0 0 .17-.241l1.415-8.185a9.627 9.627 0 0 0 5.527 1.037 1.954 1.954 0 0 0 1.628-1.187 232.042 232.042 0 0 0 3.17-10.11c.12-.405.262-.839.41-1.294l.015-.042c.769-2.337 1.697-5.157.233-7.276-1.635-2.34-7.251-3.938-7.675-4.06l-.017-.004a.353.353 0 0 0-.27 0 .34.34 0 0 0-.162.22c0 .1-2.463 9.685-5.661 13.237-3.144 3.491-6.546 2.646-6.805 2.582l-.01-.002a.346.346 0 0 0-.425.22L56.21 58.624a.413.413 0 0 0 0 .277.34.34 0 0 0 .205.178l11.734 4.057Zm-.163-.824L56.99 58.49l3.517-9.99c1.026.2 4.239.448 7.204-2.842 3.086-3.424 5.28-11.368 5.754-13.18 1.288.384 5.675 1.862 6.95 3.68 1.257 1.797.39 4.452-.314 6.605l-.026.082-.144.447c-.099.305-.193.596-.274.874a227.342 227.342 0 0 1-3.163 10.075c-.128.384-.496.64-1.104.76-1.798.356-4.862-.61-5.372-1.2a.353.353 0 0 0-.615.17l-1.416 8.342Z" fill="#231F20"/>
		<path d="M77.49 51.804s-3.078.88-3.708-2.239l3.708 2.239Z" fill="#fff"/>
		<path d="M76.55 52.273a3.301 3.301 0 0 1-1.735-.441 3.184 3.184 0 0 1-1.415-2.196.36.36 0 0 1 .708-.142c.095.7.48 1.328 1.061 1.727.681.344 1.463.43 2.201.242a.366.366 0 0 1 .45.45.367.367 0 0 1-.259.26 4.159 4.159 0 0 1-1.012.1Z" fill="#231F20"/>
		<path d="M72.459 43.263a4.843 4.843 0 0 0-.29-2.6 7.172 7.172 0 0 0-.793-1.89 2.348 2.348 0 0 0-1.67-1.073 2.119 2.119 0 0 0-1.62.71c-.414.445-.72.98-.892 1.563a7.59 7.59 0 0 0 1.535 7.383l-.134-.256" fill="#fff"/>
		<path d="M68.73 47.71a.367.367 0 0 1-.263-.113 8.003 8.003 0 0 1-1.613-7.766c.19-.635.524-1.216.977-1.698a2.507 2.507 0 0 1 1.903-.789c.798.09 1.51.544 1.932 1.23.376.615.66 1.283.842 1.982a5.17 5.17 0 0 1 .298 2.792.36.36 0 0 1-.44.256.355.355 0 0 1-.247-.434 4.614 4.614 0 0 0-.29-2.401 6.476 6.476 0 0 0-.75-1.79 1.945 1.945 0 0 0-1.416-.925c-.51-.01-.998.2-1.344.576-.377.405-.655.89-.814 1.421a7.277 7.277 0 0 0 1.154 6.693.385.385 0 0 1 .233.185l.127.256a.349.349 0 0 1-.113.454.332.332 0 0 1-.177.072Z" fill="#231F20"/>
		<ellipse cx="79.296" cy="39.986" rx="1.257" ry=".5" transform="rotate(-77.39 79.296 39.986)" fill="#231F20"/>
		<path d="M69.777 54.034a43.27 43.27 0 0 1-4.41-3.29s-.707 6.153 3.49 7.567l.92-4.277Z" fill="#231F20"/>
		<path fill-rule="evenodd" clip-rule="evenodd" d="M68.743 58.666a.317.317 0 0 0 .114 0 .389.389 0 0 0 .177-.042.362.362 0 0 0 .17-.235l.92-4.263a.363.363 0 0 0-.156-.37 43.893 43.893 0 0 1-4.374-3.268.367.367 0 0 0-.36-.057.362.362 0 0 0-.22.292c-.028.263-.672 6.458 3.73 7.943Zm-.141-.838c-2.718-1.208-2.916-4.839-2.916-6.36a43.939 43.939 0 0 0 3.694 2.73l-.778 3.63Z" fill="#231F20"/>
		<path d="M36.006 119.382s.636-43.485 7.133-53.496c6.497-10.011 23.354-12.27 31.393-6.302 8.04 5.968 4.169 51.584 4.169 51.584s-25.633 8.214-42.695 8.214Z" fill="#E7816B"/>
		<path d="M68.92 57.025a46.892 46.892 0 0 1 11.861 7.027c5.563 4.64 17.303 24.592 17.303 24.592L82.6 98.058 68.7 80.85l.22-23.824Zm-19.086 2.707s-8.103.917-12.392 9.848c-2.321 4.846-8.266 20.492-8.266 20.492l17.877 2.067 2.78-32.407Z" fill="#E7816B"/>
		<path d="M81.44 96.971a.346.346 0 0 1-.284-.15L67.35 77.944a.356.356 0 0 1 .071-.497.36.36 0 0 1 .495.078l13.807 18.879a.356.356 0 0 1-.283.568Zm41.215-21.336 3.454-10.765 1.076.313-2.173 10.615s-1.529 1.478-2.357-.163Z" fill="#231F20"/>
		<path fill-rule="evenodd" clip-rule="evenodd" d="M123.476 76.764h.241a2.493 2.493 0 0 0 1.543-.675.341.341 0 0 0 .099-.178l2.172-10.658a.355.355 0 0 0-.247-.412l-1.076-.313a.368.368 0 0 0-.439.235l-3.432 10.778a.36.36 0 0 0 0 .27c.199.488.626.844 1.139.953Zm.092-.718a.846.846 0 0 1-.559-.455l3.305-10.281.432.12-2.088 10.183a1.553 1.553 0 0 1-1.09.433Z" fill="#231F20"/>
		<path d="M57.35 51.264c-6.37-1.422-13.447-.427-18.592 3.552a13.206 13.206 0 0 0-4.692 6.395 8.397 8.397 0 0 0 1.317 7.66c4.883 5.89 15.604 5.861 22.235 3.936 4.523-1.308 17.912-7.688 14.225-13.955-2.654-4.483-9.717-6.558-14.494-7.588Z" fill="#E7816B"/>
		<path d="M49.24 73.34a25.014 25.014 0 0 1-11.982-3.46.348.348 0 0 1-.113-.49.353.353 0 0 1 .488-.108c.085.057 8.84 5.521 17.126 2.367 3.978-1.514 6.37-4.2 8.655-6.793 2.527-2.842 4.912-5.528 9.03-5.905a.353.353 0 0 1 .383.327.349.349 0 0 1-.319.384c-3.835.348-6.03 2.842-8.563 5.684-2.25 2.537-4.798 5.407-8.938 6.985a16.218 16.218 0 0 1-5.768 1.009Zm-12.598 30.502a.356.356 0 0 1-.34-.369c.517-11.248 2.832-27.434 2.832-27.597a.361.361 0 0 1 .403-.299c.19.03.322.207.297.398 0 .164-2.342 16.342-2.83 27.526a.354.354 0 0 1-.361.341Zm54.273 70.477h15.039s1.635-3.659 5.159-4.164c0 0 13.715 5.819 11.698 7.013-2.017 1.194-32.957 1.066-32.957 1.066l1.061-3.915Z" fill="#231F20"/>
		<path fill-rule="evenodd" clip-rule="evenodd" d="M89.847 178.596h3.163c8.202 0 28.265-.106 29.985-1.143a.71.71 0 0 0 .375-.654c-.092-1.762-9.292-5.798-12.123-6.992a.338.338 0 0 0-.184 0c-3.205.462-4.911 3.347-5.328 4.164h-14.82a.354.354 0 0 0-.346.263l-1.062 3.915a.355.355 0 0 0 .34.447Zm32.787-1.733c-1.401.831-19.914 1.058-32.32 1.023l.87-3.212h14.77a.353.353 0 0 0 .325-.206c.015-.035 1.572-3.424 4.784-3.95 5.577 2.373 11.571 5.464 11.571 6.345Z" fill="#231F20"/>
		<path d="M79.55 139.368c9.575-2.025 15.994-6.523 12.229-12.591-3.765-6.067-30.806-2.131-36.092-6.629-5.287-4.497-3.397-28.35-9.2-32.435-5.804-4.086-30.679-8.214-33.46-3.056-2.781 5.159 0 42.696 8.103 51.03 8.103 8.335 49.078 5.614 58.42 3.681Z" fill="#231F20"/>
		<path fill-rule="evenodd" clip-rule="evenodd" d="M49.862 141.749h1.6c11.386 0 23.304-1.045 28.18-2.125 7.098-1.499 11.755-4.135 13.17-7.418.764-1.776.524-3.694-.708-5.684-2.13-3.425-11.025-3.787-19.624-4.135l-.026-.001c-6.977-.284-14.18-.577-16.527-2.578-2.47-2.11-3.354-8.937-4.21-15.545v-.002l-.005-.031c-.94-7.223-1.91-14.687-5.027-16.88-4.954-3.466-22.739-6.806-30.431-4.973-1.84.47-3.022 1.172-3.539 2.132-3.007 5.606.12 43.157 8.132 51.456 4.494 4.604 18.258 5.691 29.015 5.784ZM16.395 83.102a23.696 23.696 0 0 1 5.237-.49c8.485 0 20.8 2.678 24.62 5.385 2.874 2.011 3.83 9.372 4.742 16.421.913 7.048 1.777 13.706 4.452 15.994 2.533 2.167 9.554 2.451 16.984 2.749l.025.001c8.428.341 17.096.692 19.027 3.801 1.103 1.783 1.323 3.481.658 5.044-1.281 3.027-5.895 5.585-12.668 7.006-9.391 1.954-50.154 4.626-58.087-3.552-7.8-8.044-10.793-45.517-8.047-50.611.41-.775 1.444-1.364 3.057-1.748Z" fill="#231F20"/>
		<path d="M97.32 119.737h-.057l-22.816-4.008a.36.36 0 0 1 .12-.71l22.817 4.007a.356.356 0 0 1-.064.711Z" fill="#D1D3D4"/>
		<path d="M154.473 128.19a6.425 6.425 0 0 0-.368.002c-.326.01-.651.044-.968.093-.95.204-1.883.482-2.79.832-.912.263-1.18.47-.367 1.215.574.518 2.123 2.374 1.415 3.262-.708.888-1.896-1.377-2.356-1.754a3.362 3.362 0 0 0-2.236-.96 3.483 3.483 0 0 0-1.926 1.022 20.41 20.41 0 0 0-1.57 1.557.795.795 0 0 0-.184.277c-.113.412.445.654.863.711 1.196.22 2.533.845 2.774 2.04-1.232.304-2.393-.946-3.653-.811a2.867 2.867 0 0 0-2.015 1.799 4.577 4.577 0 0 0-.305 2.535 6.73 6.73 0 0 1 3.313-.283.57.57 0 0 1 .367.162.414.414 0 0 1-.162.554 1.09 1.09 0 0 1-.623.108h-2.053a.887.887 0 0 0-.572.135.812.812 0 0 0-.227.533 11.223 11.223 0 0 0-.035 2.842 2.42 2.42 0 0 0 .642 1.578c.32.242.694.402 1.09.467 1.036.25 2.098.384 3.164.398a2.507 2.507 0 0 1-.318-2.295c.424-.994 1.146-.419 1.182.484 0 .426-.078.846-.092 1.272a.441.441 0 0 0 .043.234.43.43 0 0 0 .162.127 2.588 2.588 0 0 0 1.84.242c.177-.035.344-.11.488-.22.33-.394.441-.926.297-1.42l-.29-2.567a.396.396 0 0 1 .071-.347c.127-.128.354 0 .488.1a2.31 2.31 0 0 1 .766 1.868c0 .405-.17.796-.2 1.194a1.16 1.16 0 0 0 .425 1.072c.34.164.734.185 1.09.057.473-.07.91-.298 1.238-.647.282-.448.367-.994.234-1.506a9.507 9.507 0 0 1-.297-1.54c0-1.053 1.075-2.559 1.252-.712.007.603-.027 1.207-.105 1.805a.545.545 0 0 0 0 .234.476.476 0 0 0 .402.192 4.455 4.455 0 0 0 2.414-.469c.513-.25.964-.615 1.317-1.066.262-.37.482-.768.658-1.186.162-.345.34-.675.515-.998 3.434 8.327 2.894 20.195 2.602 24.201h.711c.251-3.35.306-6.71.137-10.066-.312-6.166-1.332-11.173-3.024-14.965.506-1.074.717-2.117-.312-3.38-.545-.669-1.558-.846-2.067-1.528a.975.975 0 0 1-.093-.154.356.356 0 0 1-.2.459c-.057 0-5.923 2.414-9.511 6.216a.356.356 0 0 1-.27.121.356.356 0 0 1-.24-.1.356.356 0 0 1 0-.503c3.694-3.908 9.512-6.289 9.76-6.395a.352.352 0 0 1 .455.188c-.383-.812.428-1.995.46-2.943a4.24 4.24 0 0 0 .022-.676 3.11 3.11 0 0 0-.927-1.89c-.623-.57-1.449-.784-2.301-.808zm18.363 12.816c-1.282.013-2.436.878-3.31 1.855-.311.355-.527 1.273-1.006 1.215a7.871 7.871 0 0 1-.883-.375 3.012 3.012 0 0 0-.938-.138 2.543 2.543 0 0 0-2.11 1.097 2.92 2.92 0 0 0-.366 1.828c.082.627.232 1.243.45 1.836a2.578 2.578 0 0 1 2.015-1.316c.858-.075-.141.755-.29.93a50.354 50.354 0 0 0-1.406 1.75 1.063 1.063 0 0 0-.26.529c0 .212.062.421.18.598a5.407 5.407 0 0 0 1.58 2.027.653.653 0 0 0 .686.11.762.762 0 0 0 .232-.339c.226-.474.513-.914.852-1.314-2.95 5.168-2.737 11.333-2.584 13.314h.713c-.15-2.073-.267-7.75 2.388-12.625l-.048.52c-.074.425-.048.86.074 1.273.279.751 1.121 1.128 1.906 1.276.214.058.44.058.654 0 .422-.148.595-.65.668-1.094.083-.582.323-1.13.692-1.588.096.769.34 1.512.72 2.186.192.362.456.68.776.935.34.243.73.404 1.142.475a8.547 8.547 0 0 0 2.108.117 5.25 5.25 0 0 0 1.443-.184 1.959 1.959 0 0 0 1.139-.863c.416-.751.094-1.718-.444-2.385-.536-.666-1.264-1.164-1.822-1.814a5.093 5.093 0 0 1 1.902.994.707.707 0 0 0 .526.244.471.471 0 0 0 .242-.139c.832-.835-.125-2.248-.568-3a2.425 2.425 0 0 0-1.18-1.214 1.916 1.916 0 0 0-.95 0c-.473.08-2.823 1.152-1.821-.26a2.757 2.757 0 0 1 2.181-.957c.406.036 1.021.365 1.01-.397a1.428 1.428 0 0 0-.305-.746 16.51 16.51 0 0 0-1.052-1.412.692.692 0 0 0-.397-.28.678.678 0 0 0-.394.112 8.973 8.973 0 0 1-3.13 1.174c-.252 0-.606-.081-.564-.33a.372.372 0 0 1 .162-.217c.67-.528 1.67-.3 2.356-.787a.825.825 0 0 0 .375-.592c0-.354-.29-.635-.574-.851a4.99 4.99 0 0 0-2.514-1.17 2.745 2.745 0 0 0-.256-.008zm-2.82 4.695c.016.001.032.006.048.01a.263.263 0 0 1 .094.043 19.342 19.342 0 0 1 1.315 1.088 25.715 25.715 0 0 1 1.232 1.178c.197.2.389.4.576.601a39.345 39.345 0 0 1 2.385 2.823c.252.328.476.628.666.888.38.521.625.886.707 1.008a.26.26 0 0 1-.074.363.25.25 0 0 1-.143.05.273.273 0 0 1-.22-.118 25.185 25.185 0 0 0-.604-.869 40.67 40.67 0 0 0-.643-.865 39.026 39.026 0 0 0-2.377-2.838 31.33 31.33 0 0 0-1.185-1.211 21.281 21.281 0 0 0-1.95-1.674.26.26 0 0 1-.097-.275.25.25 0 0 1 .043-.094.28.28 0 0 1 .074-.062l.018-.012a.27.27 0 0 1 .084-.027c.017-.002.034-.005.05-.004zm-16.705.922a4.328 4.328 0 0 0-2.664.961c-.234.228-.44.61-.227.86a.84.84 0 0 0 .453.212 2.837 2.837 0 0 1 1.945 1.955c-.488-.362-.904-.825-1.414-1.187a2.379 2.379 0 0 0-1.691-.555 2.831 2.831 0 0 0-1.649 1.11 6.565 6.565 0 0 0-1.125 1.654 3.057 3.057 0 0 0-.255 1.969 4.72 4.72 0 0 1 1.988-.135c.473.043.922.23 1.287.533a.647.647 0 0 1 .229.34.57.57 0 0 1-.448.605c-.27.064-.55.064-.82 0a14.505 14.505 0 0 0-1.748-.248 1.719 1.719 0 0 0-.658.041c-.518.291-.8.876-.707 1.465a.869.869 0 0 0 .248.647c.29.227.708.062 1.047-.08a5.156 5.156 0 0 1 1.869-.397.425.425 0 0 1 .21.035.317.317 0 0 1 .057.463.84.84 0 0 1-.453.262 9.83 9.83 0 0 1-1.486.347c-.29.043-.63.107-.772.37a.82.82 0 0 0-.078.37 4.559 4.559 0 0 0 .793 2.708c.088.144.203.27.34.369.194.104.411.16.631.17a10.267 10.267 0 0 0 4.953-.711.43.43 0 0 0 .205-.149c.092-.163-.062-.354-.183-.496-.523-.647-.403-1.58-.254-2.396a.706.706 0 0 1 .183-.426.472.472 0 0 1 .637.1 1.2 1.2 0 0 1 .232.668 6.25 6.25 0 0 1-.197 2.507c.815-.19 1.61-.46 2.371-.808a7.304 7.304 0 0 0 1.727-.961 2.84 2.84 0 0 0 1.054-1.633.53.53 0 0 0-.035-.363.59.59 0 0 0-.213-.184 4.484 4.484 0 0 1-1.67-1.976c-.07-.171-.107-.404.05-.489a.327.327 0 0 1 .204 0c.254.043.47.158.668.307 1.303 2.195 2.268 5.422 2.159 10.156h.705c.08-3.738-.492-6.58-1.377-8.736a.366.366 0 0 0 .132.04c.091 0 .18-.038.24-.107a1.91 1.91 0 0 0 .575-1.035 3.764 3.764 0 0 0-.129-2.367 2.672 2.672 0 0 0-1.727-1.556 3.034 3.034 0 0 0-1.103-.05c-.127 0-.807.243-.899.157-.092-.085.269-.598.354-.768.46-1.052-.156-2.402-1.012-2.97a4.037 4.037 0 0 0-1.883-.553 4.327 4.327 0 0 0-.67-.045zm1.746 5.37a.34.34 0 0 1 .246.103.357.357 0 0 1 0 .498 28.897 28.897 0 0 0-4.91 6.713.358.358 0 0 1-.227.185.36.36 0 0 1-.19.002.356.356 0 0 1-.081-.035.355.355 0 0 1-.073-.052.362.362 0 0 1-.105-.245.292.292 0 0 1 .008-.088.393.393 0 0 1 .031-.085 27.699 27.699 0 0 1 .984-1.711l.168-.27c.166-.26.333-.52.506-.775a29.593 29.593 0 0 1 1.947-2.555 29.558 29.558 0 0 1 1.448-1.582.345.345 0 0 1 .248-.104z" style="fill:#231f20"/>
		<path d="m153.52 164.963 1.387 13.602a4.04 4.04 0 0 0 4.014 3.637h7.21a4.039 4.039 0 0 0 4.02-3.637l1.414-13.602z" style="fill:#fff;stroke:#231f20;stroke-width:.7;stroke-linecap:round;stroke-linejoin:round;stroke-dasharray:none;stroke-opacity:1"/>
		<path d="M164.169 88.48a.36.36 0 0 1-.354-.298l-1.741-11.34-3.043 1.35a.353.353 0 0 1-.467-.185.346.346 0 0 1 .184-.462l3.474-1.506a.347.347 0 0 1 .312 0 .362.362 0 0 1 .184.256l1.811 11.759a.346.346 0 0 1-.297.405l-.063.021Z" fill="#231F20"/>
		<path d="M170.17 100.652h-8.86l-.482-19.15h9.823l-.481 19.15Z" fill="#fff"/>
		<path fill-rule="evenodd" clip-rule="evenodd" d="M161.31 101h8.86a.355.355 0 0 0 .325-.299l.482-19.184a.377.377 0 0 0-.354-.37H160.8a.362.362 0 0 0-.354.37l.51 19.142c.007.19.164.341.354.341Zm8.534-.711h-8.166l-.489-18.438h9.115l-.46 18.438Z" fill="#231F20"/>
		<rect x="159.93" y="79.564" width="11.62" height="1.94" fill="#fff"/>
		<path fill-rule="evenodd" clip-rule="evenodd" d="M159.93 81.858h11.62a.355.355 0 0 0 .354-.355v-1.94a.355.355 0 0 0-.354-.355h-11.62a.354.354 0 0 0-.354.355v1.94c0 .196.158.355.354.355Zm11.266-.71h-10.913v-1.23h10.913v1.23Z" fill="#231F20"/>
		<path fill-rule="evenodd" clip-rule="evenodd" d="M161.76 91.82a4.244 4.244 0 0 0 4.171 2.366 4.087 4.087 0 0 0 3.885-4.263 4.262 4.262 0 0 0-2.716-3.962 4.235 4.235 0 0 0-4.663 1.1 4.278 4.278 0 0 0-.677 4.76Zm.656-3.491a3.536 3.536 0 0 1 3.515-1.923 3.376 3.376 0 0 1 3.177 3.552 3.551 3.551 0 0 1-2.281 3.302 3.529 3.529 0 0 1-3.89-.947 3.564 3.564 0 0 1-.521-3.984Z" fill="#D1D3D4"/>
		<path style="clip-rule:evenodd;fill:#d1d3d4;fill-rule:evenodd" d="M149.17 33.549a6.227 6.227 0 0 0-4.52 2.082 6.17 6.17 0 0 0-1.343 5.174c.056.284.127.574.205.873l.008.033c.28 1.16.544 2.255-.158 3.008a4.025 4.025 0 0 1-1.131.71 3.413 3.413 0 0 0-1.557 1.188 2.282 2.282 0 0 0-.24 1.492 5.167 5.167 0 0 0 2.27 3.416c.233.157.467.315.708.45.985.54 2.022.982 3.094 1.32.82.286 1.68.436 2.547.441a9.995 9.995 0 0 0 3.617-.865c.854.36 1.793.515 2.744.432a8.538 8.538 0 0 0 2.463-.832 4.527 4.527 0 0 1 4.805-.184l.353.14a14.167 14.167 0 0 0 5.287 1.102 10.01 10.01 0 0 0 3.122-.433 6.82 6.82 0 0 0 4.464-4.534 4.886 4.886 0 0 0-1.162-4.662c-.022.084-.053.17-.082.254.03-.085.06-.17.082-.254.346-1.325-.194-2.479-.691-3.195-1.622-2.339-5.653-4.183-9.178-4.217-1.379-.013-2.682.252-3.73.871a5.684 5.684 0 0 0-2.62 3.78 4.224 4.224 0 0 0 .122 2.15c.025.078.054.154.084.23a4.048 4.048 0 0 0 .152.348c.12.243.262.477.43.695a3.639 3.639 0 0 0 2.668 1.28 4.82 4.82 0 0 1 1.648.447c.433.224.83.515 1.176.861a3.057 3.057 0 0 0 2.512 1.059l.445.014a8.983 8.983 0 0 0 5.16-1.776c.74-.601 1.224-1.199 1.524-1.777a4.211 4.211 0 0 1 .732 3.68 6.11 6.11 0 0 1-4.004 4.029 11.6 11.6 0 0 1-7.877-.617l-.342-.143a6.839 6.839 0 0 0-2.299-.646h-.17a7.005 7.005 0 0 0-2.873.851 8.024 8.024 0 0 1-2.25.776 4.22 4.22 0 0 1-1.828-.168c.34-.194.67-.409.987-.643 1.74-1.13 2.504-2.245 2.334-3.41a4.022 4.022 0 0 0-1.034-1.856 3.178 3.178 0 0 1-.884-1.533 3.417 3.417 0 0 1 .529-1.709c-.235-.067-.468-.13-.7-.191a3.84 3.84 0 0 0-.523 1.978 3.826 3.826 0 0 0 1.041 1.91c.417.418.72.937.877 1.506.106.86-.53 1.742-2.015 2.715-.478.304-.97.597-1.479.856-.771-.423-1.366-.994-1.748-1.424a7.362 7.362 0 0 1-1.799-3.744 3.676 3.676 0 0 1 1.932-3.844c1.15-.51 2.402-.3 3.715.047l.002-.002c.231.061.464.124.699.191l-.002.002c.06.017.119.032.18.05l.013.003c1.05.374 2.15.578 3.26.613-.014-.026-.024-.053-.037-.08a4.243 4.243 0 0 1-.152-.347 4.236 4.236 0 0 1-.084-.231l-.014-.039c-.941-.06-1.871-.25-2.762-.57l-.05-.014c-1.683-.478-3.412-.952-5.038-.248a4.36 4.36 0 0 0-2.37 4.582 8.045 8.045 0 0 0 1.939 4.1c.418.535.921.984 1.48 1.336-1.501.61-3.166.849-5.103.185a16.28 16.28 0 0 1-2.965-1.273v.037a7.618 7.618 0 0 1-.637-.42 4.525 4.525 0 0 1-1.988-2.928 1.598 1.598 0 0 1 .148-1.037 2.829 2.829 0 0 1 1.26-.916c.494-.212.947-.51 1.338-.88.969-1.038.622-2.451.318-3.694v-.002c-.07-.285-.142-.568-.199-.838a5.46 5.46 0 0 1 1.182-4.568 5.492 5.492 0 0 1 4.65-1.82c2.505.29 4.473 1.478 5.393 3.26a5.525 5.525 0 0 1-.096 4.933c.23.061.459.126.687.191a6.185 6.185 0 0 0 .032-5.45c-1.033-1.996-3.2-3.325-5.946-3.638a6.193 6.193 0 0 0-.738-.03zm15.176 3.617c.141-.005.282-.005.424 0 3.298 0 7.19 1.728 8.705 3.916.509.749.72 1.497.634 2.229-1.779-1.408-4.789-2.17-7.295-2.15-.944.006-1.817.124-2.525.36-.609.218-1.205.473-1.783.762a9.022 9.022 0 0 1-2.83.98c-.088.004-.175.003-.262.005a3.434 3.434 0 0 0 .365.668 9.68 9.68 0 0 0 2.98-1.063 15.02 15.02 0 0 1 1.708-.71c.647-.22 1.456-.327 2.336-.331 2.49-.01 5.546.807 7.103 2.244-.255.616-.728 1.216-1.43 1.787a8.556 8.556 0 0 1-4.755 1.614 2.518 2.518 0 0 1-2.426-.846 4.768 4.768 0 0 0-3.215-1.535 2.965 2.965 0 0 1-2.207-1.024c-.034-.044-.062-.091-.094-.136a3.448 3.448 0 0 1-.365-.668 3.447 3.447 0 0 1-.185-2.038 4.975 4.975 0 0 1 2.279-3.296 6.43 6.43 0 0 1 2.838-.768zm9.76 6.166zm.511.961zm-38.176-15.2a.355.355 0 0 0-.353.356v30.283c0 .197.158.356.353.356h42.957c.196 0 .354-.16.354-.356V29.45a.354.354 0 0 0-.354-.355zm.354.712h42.25v29.572h-42.25z"/>
		<path d="M59.317 45.622s2.286-1.862 0-4.264H55.63s.792 3.105 0 4.264h3.687Z" fill="#231F20"/>
		<path fill-rule="evenodd" clip-rule="evenodd" d="M55.63 45.976h3.687a.36.36 0 0 0 .198-.078 3.38 3.38 0 0 0 1.146-2.202 3.445 3.445 0 0 0-1.118-2.58.389.389 0 0 0-.254-.106H55.6a.36.36 0 0 0-.282.135.406.406 0 0 0-.064.312c.212.818.63 3.127.056 3.958a.363.363 0 0 0 0 .37c.064.117.186.19.319.191Zm3.545-.71h-2.993a8.274 8.274 0 0 0-.128-3.546h3.086c.523.503.817 1.2.814 1.926a2.605 2.605 0 0 1-.779 1.62Z" fill="#231F20"/>
		<path d="M57.314 44.214a2.663 2.663 0 0 0-.8-2.266 5.607 5.607 0 0 0-.927-.952 5.888 5.888 0 0 0-2.186-.867c-1.72-.42-3.73.114-5.485.149a13.907 13.907 0 0 1-5.506-1.023 3.707 3.707 0 0 1-1.564-1.03c-.439 2.579-.382 5.42 1.097 7.588a9.83 9.83 0 0 0 4.954 3.432 7.95 7.95 0 0 0 7.947-1.158 6.882 6.882 0 0 0 2.25-2.977c.103-.29.177-.59.22-.896Z" fill="#fff"/>
		<path fill-rule="evenodd" clip-rule="evenodd" d="M46.748 49.58a9.608 9.608 0 0 0 3.213.589 8.119 8.119 0 0 0 5.089-1.84 7.308 7.308 0 0 0 2.363-3.134c.121-.312.21-.636.262-.966a2.999 2.999 0 0 0-.87-2.551 6.946 6.946 0 0 0-.984-1.009 6.22 6.22 0 0 0-2.321-.924 10.933 10.933 0 0 0-3.758 0l-.243.028c-.548.062-1.07.122-1.576.122a13.856 13.856 0 0 1-5.4-.917 3.458 3.458 0 0 1-1.415-.924.346.346 0 0 0-.36-.128.362.362 0 0 0-.263.285c-.559 3.24-.177 5.876 1.147 7.816a10.147 10.147 0 0 0 5.116 3.552Zm-4.529-3.973c-1.14-1.684-1.507-3.886-1.14-6.657.357.268.745.492 1.154.667 1.8.721 3.724 1.076 5.662 1.045a22.534 22.534 0 0 0 1.744-.135l.138-.014a10.396 10.396 0 0 1 3.539 0 5.65 5.65 0 0 1 2.06.803c.32.247.614.528.877.838.536.513.8 1.251.707 1.99-.05.281-.129.557-.233.824a6.584 6.584 0 0 1-2.123 2.842 7.647 7.647 0 0 1-7.615 1.101 9.411 9.411 0 0 1-4.77-3.304Z" fill="#231F20"/>
		<path style="fill:#d1d3d4" d="M110.385 53.316a.356.356 0 0 0-.356.356v.525h-5.433a.356.356 0 0 0-.356.356v9.236c0 .196.16.356.356.356h11.578c.195 0 .353-.16.353-.356v-9.236a.355.355 0 0 0-.353-.356h-5.436v-.525a.355.355 0 0 0-.353-.356zm-5.436 1.592h5.08v.973c0 .196.16.355.356.355a.35.35 0 0 0 .254-.109.354.354 0 0 0 .1-.26v-.959h5.08v8.526h-10.87zm-3.595-29.58a.355.355 0 0 0-.354.356v23.88c0 .197.159.354.354.354h30.048a.353.353 0 0 0 .354-.354v-23.88a.362.362 0 0 0-.354-.356zm.355.717h29.367v19.22H101.68zm17.834 4.473c-7.388.04-15.052 9.475-15.38 9.888a.35.35 0 0 0-.05.38c.06.124.188.2.326.194a.356.356 0 0 0 .276-.126c.078-.107 8.26-10.197 15.457-9.6 2.69.213 4.515 1.584 4.89 3.666a4.084 4.084 0 0 1-2.195 4.49c-1.862.853-3.594.86-4.748 0a3.453 3.453 0 0 1-1.176-3.402 2.43 2.43 0 0 1 1.707-2.252 2.969 2.969 0 0 1 2.88.795.843.843 0 0 1 .156.967c-.283.525-.644 1.2-1.288 1.236-.644.035-1.232-.74-1.416-1.031a.345.345 0 0 0-.48-.12.355.355 0 0 0-.121.49c.035.058.886 1.372 2.039 1.372.722-.029 1.358-.577 1.896-1.621a1.553 1.553 0 0 0-.234-1.74 3.692 3.692 0 0 0-3.623-1.032 3.105 3.105 0 0 0-2.215 2.844 4.135 4.135 0 0 0 1.457 4.078c1.372 1.016 3.34 1.03 5.463.043a4.809 4.809 0 0 0 2.625-5.23c-.438-2.43-2.504-4.023-5.533-4.264a8.406 8.406 0 0 0-.713-.025zm-17.834 15.457h29.367v3.234H101.68z"/>
    </symbol>
    <symbol id="passion" viewBox="0 0 202 202">
		<path d="M202 101a101 101 0 0 1-101 101A101 101 0 0 1 0 101 101 101 0 0 1 101 0a101 101 0 0 1 101 101Z" style="opacity:.202683;fill:url(#a)" transform="matrix(-1 0 0 1 202 0)"/>
		<path fill="#231F20" d="M164.8 138.1s22.6-59 11-68c-11.8-9-60.9-5.3-63.6-2-2.6 3.1-18.5 74.1-18.5 74.1l71.1-4Z"/>
		<path fill="#231F20" fill-rule="evenodd" d="M93.4 142.5a.4.4 0 0 0 .3 0l71.2-4a.3.3 0 0 0 .3-.2c.1-.5 5.7-15.1 9.8-30.7 5.6-21.2 6-33.9 1-37.7-7.2-5.5-27.2-5.8-35.4-5.7-14 .2-27.1 1.8-28.6 3.6-2.7 3.3-18 71.5-18.6 74.4a.3.3 0 0 0 0 .3Zm47.2-77.6h2.6c16 0 27.7 2 32.3 5.5 11 8.5-9.5 63.6-11 67.4l-70.4 4c5.5-24.6 16.3-71 18.4-73.6 1.2-1.4 13.7-3.1 28.1-3.3Z" clip-rule="evenodd"/>
		<path fill="#fff" d="m73.1 87.2-10.2 34.2s21 2.7 21 2L88 85.6l-14.9 1.5Z"/>
		<path fill="#231F20" fill-rule="evenodd" d="M62.9 121.7a244.6 244.6 0 0 0 21.2 1.9.4.4 0 0 0 .2-.3l4-37.6a.3.3 0 0 0 0-.3.3.3 0 0 0-.3 0l-15 1.4a.3.3 0 0 0-.2.3l-10.2 34.2a.4.4 0 0 0 .3.4Zm20.7 1.4c-1.6.2-13-1-20.3-2l10-33.6 14.3-1.4v1c-.8 6.6-3.8 33.2-4 36Z" clip-rule="evenodd"/>
		<path fill="#fff" d="M53.8 78.7s3.7-.9 5.6 1.4c1.8 2.2-.6 4.2-6.5 3-5.9-1.1.9-4.4.9-4.4Z"/>
		<path fill="#231F20" fill-rule="evenodd" d="M52.9 83.5a16.8 16.8 0 0 0 3.1.3c2 0 3.5-.5 4.1-1.4.4-.7.3-1.6-.5-2.5-1.6-2-4.5-1.6-5.5-1.5h-.2a.3.3 0 0 0-.3 0c-.6.3-3.6 1.9-3.4 3.4 0 .8 1 1.4 2.7 1.7Zm-2-1.8c-.1-.8 1.6-2 3-2.7h.3c1-.1 3.5-.4 4.9 1.3.5.4.6 1 .4 1.7-.5.8-2.5 1.6-6.5.8-1.8-.4-2.1-.9-2.1-1.1Z" clip-rule="evenodd"/>
		<path fill="#fff" d="M44.7 71.5s-.7-.8-.2-1.4a1 1 0 0 1 1.6.1s-1.2.4-1.4 1.3Z"/>
		<path fill="#231F20" fill-rule="evenodd" d="M44.5 71.8a.4.4 0 0 0 .2 0h.1a.3.3 0 0 0 .3-.2c.1-.6.8-1 1.1-1a.3.3 0 0 0 .2-.3.3.3 0 0 0 0-.3 1.5 1.5 0 0 0-1.2-.6c-.4 0-.8.2-1 .5-.5.6 0 1.5.3 1.9Zm.3-1.5a.6.6 0 0 1 .4-.2.6.6 0 0 1 .3 0 2.7 2.7 0 0 0-.7.7.5.5 0 0 1 0-.5Z" clip-rule="evenodd"/>
		<path fill="#fff" d="M46.4 70.2a1.9 1.9 0 0 0-1.7 1.5L59.4 91a4.1 4.1 0 0 1 3.5-3.7l-16.5-17Z"/>
		<path fill="#231F20" fill-rule="evenodd" d="M59.1 91a.3.3 0 0 0 .3.2h.1a.3.3 0 0 0 .3-.3 3.8 3.8 0 0 1 3.2-3.3.3.3 0 0 0 .3-.3.3.3 0 0 0-.1-.3L46.6 70a.4.4 0 0 0-.2-.2 2.2 2.2 0 0 0-2 1.8.4.4 0 0 0 0 .3l14.7 19.2Zm.1-1L45.1 71.7a1.5 1.5 0 0 1 1.1-1l16 16.4a4.4 4.4 0 0 0-3 3Z" clip-rule="evenodd"/>
		<path fill="#fff" d="m59.4 90.9 5 2.6.6-.6-2-5.7s-4-.4-3.6 3.7Z"/>
		<path fill="#231F20" fill-rule="evenodd" d="M64.3 93.8a.4.4 0 0 0 .4 0l.6-.6a.3.3 0 0 0 0-.4l-2-5.7a.4.4 0 0 0-.3-.3 4.1 4.1 0 0 0-3 1 3.7 3.7 0 0 0-1 3.1.3.3 0 0 0 .2.3l5 2.6Zm0-.7-4.6-2.5a2.9 2.9 0 0 1 .7-2.3 3.4 3.4 0 0 1 2.3-.8l2 5.3-.3.3Z" clip-rule="evenodd"/>
		<path fill="#fff" d="m64.4 93.5 1 1 .4-.5-.8-1.1-.6.6Z"/>
		<path fill="#231F20" fill-rule="evenodd" d="M65.1 94.8a.3.3 0 0 0 .3 0 .3.3 0 0 0 .3 0l.4-.6a.3.3 0 0 0 0-.4l-.8-1.1a.4.4 0 0 0-.5 0l-.6.5a.4.4 0 0 0-.1.3.4.4 0 0 0 0 .2l1 1Zm.3-.8-.5-.5.5.5Z" clip-rule="evenodd"/>
		<path fill="#fff" d="M54.7 92.4c.8-1.7 2.9-5.1 3.3-6.7 1.3-4-6.2-8-8.7-8-2.4 0-7.5 8.6-7.5 13.2 0 4.5 16.9 39.5 16.9 39.5l16.2-7.4-20.2-30.6Z"/>
		<path fill="#231F20" fill-rule="evenodd" d="M58.4 130.6a.3.3 0 0 0 .3.2.3.3 0 0 0 .2 0l16.2-7.5a.4.4 0 0 0 .2-.2.4.4 0 0 0 0-.3L55.2 92.4l.5-1 .4-.8a37.7 37.7 0 0 0 2.3-4.7 4.1 4.1 0 0 0-.8-3.8c-2-2.7-6.4-4.7-8.3-4.7-2.7 0-7.8 8.9-7.8 13.5 0 4.4 15.4 36.6 16.8 39.5l.1.2ZM42.2 90.9c0-4.5 5-12.8 7.1-12.8 1.6 0 5.8 1.8 7.7 4.4.7.9 1 2 .7 3.2a37.5 37.5 0 0 1-2.2 4.6 90.5 90.5 0 0 0-1 2 .4.4 0 0 0 0 .3l20 30.2-15.6 7.1c-2-4-16.7-34.9-16.7-39Z" clip-rule="evenodd"/>
		<path d="M116 40c-3.9 0-7.7.6-11.4 1.5a28.9 28.9 0 0 0-12.2 6.2c-5 4.5-6.4 10.4-5 16.8a22.8 22.8 0 0 0 21.2 17.7c8.6.5 16.9-3.9 23.2-9.5 3-2.5 5-5.8 7.6-8.6l.7-.7c3.3-3.1 6.2-7.8 3.7-12.4a12.5 12.5 0 0 0-4-4 42 42 0 0 0-23.9-7zM87 61.5c-13.4 9-16.2 28.8-16.2 28.8l13.7 4.8s-2.6 31.4-5 47.9c0 0 30.3 6 74.4-1.4 0 0-12.7-37.6-12.8-42.3l20-5.1c-.7-1-8.8-26.6-17.3-30.8a22.3 22.3 0 0 0-2.4-1.3l-1.3 1.3-.7.7c-2.6 2.8-4.7 6-7.6 8.6a33.2 33.2 0 0 1-23.2 9.5c-10.2-.6-19-7.6-21.2-17.7a22 22 0 0 1-.4-3Z" style="fill:#e7816b"/>
		<path fill="#231F20" d="m104.7 71.3-2.1 2.4c1 4 2.2 9.3 6.8 9.8 9.3 1 10.7-11.3 12.5-17.2-6.5 1.8-11 2.5-17.2 5Z"/>
		<path fill="#231F20" fill-rule="evenodd" d="M109.4 83.9h1.1c7.3 0 9.5-8.7 10.9-14.5V69l.8-2.6a.4.4 0 0 0 0-.4.3.3 0 0 0-.4 0 197.4 197.4 0 0 1-5.6 1.4 85.4 85.4 0 0 0-11.6 3.6c-.2 0-.2 0-1.2 1.2l-1 1.2a.3.3 0 0 0-.1.3l.1.7c1 4 2.4 9 7 9.5Zm-6.3-9.7-.2-.4 1-1.1 1-1.1a82.8 82.8 0 0 1 11.5-3.6l1-.2 4-1a89.5 89.5 0 0 0-.6 2.4c-1.6 6.3-3.7 14.8-11.4 14-4-.5-5.3-5-6.3-9Z" clip-rule="evenodd"/>
		<path fill="#fff" d="M113.5 23.2c-1.4 0-2.3.6-3.5 1-2.3.8-3.3-1.1-5.3-2.1A15.2 15.2 0 0 0 85.9 26a11.3 11.3 0 0 0-2.6 5.7c-.3 2.4.4 4.8 0 7.2a8 8 0 0 1-5 6 19.2 19.2 0 0 0 6.5-.6 6.6 6.6 0 0 1-5 2.3 12.3 12.3 0 0 0 7.7 2.6l-4.9 1.1c4.1 2.7 9.2 3.5 14 3.2 9.7-.5 25.9-4.4 25.6-17-.2-4.7-2.8-13-8.7-13.3z"/>
		<path fill="#231F20" fill-rule="evenodd" d="M82.7 50.9A23.4 23.4 0 0 0 96.9 54c3-.1 10.4-.9 16.7-4 6.2-3.1 9.3-7.6 9.2-13.3-.1-5.4-3-13.4-9-13.7a5.9 5.9 0 0 0-2.7.6 14.7 14.7 0 0 1-.9.4c-1.4.5-2.3-.2-3.4-1a11.5 11.5 0 0 0-1.8-1 15.5 15.5 0 0 0-19 4 11.7 11.7 0 0 0-2.7 5.9 18.4 18.4 0 0 0 0 3.4 15.3 15.3 0 0 1 0 3.7 7.7 7.7 0 0 1-4.8 5.8.3.3 0 0 0-.2.4c0 .1.1.3.3.3a19.3 19.3 0 0 0 5.4-.4 6.3 6.3 0 0 1-3.8 1.4.3.3 0 0 0-.3.6 12.8 12.8 0 0 0 5.7 2.5l-2.7.6a.4.4 0 0 0-.3.3.3.3 0 0 0 .2.4Zm14.1 2.6a24 24 0 0 1-13-2.8l4-1a.3.3 0 0 0 .2-.4.3.3 0 0 0-.3-.3 12 12 0 0 1-6.7-2 7 7 0 0 0 4.3-2.3.3.3 0 0 0 0-.4.3.3 0 0 0-.4-.2 19.2 19.2 0 0 1-5 .7 8.4 8.4 0 0 0 4-5.7 16 16 0 0 0 0-3.9 17.5 17.5 0 0 1 0-3.2 11 11 0 0 1 2.5-5.5 14.8 14.8 0 0 1 18.4-3.9l1.5 1c1.2 1 2.3 1.8 4 1.2l.9-.4a5.4 5.4 0 0 1 2.5-.6c5.5.3 8.2 8 8.4 13 0 5.5-2.9 9.7-9 12.7a44 44 0 0 1-16.3 4Z" clip-rule="evenodd"/>
		<path fill="#fff" d="m101.7 61.5.7 11.8s5.4 6.2 12.4 2.4c7-3.8 6.7-9.8 6.7-9.8l-4.6-22.2s-6.3-1.5-8-13.9a38.1 38.1 0 0 1-18.5 8s.1 13.8 2.6 19.4c2.4 5.5 8.7 4.3 8.7 4.3z"/>
		<path fill="#231F20" fill-rule="evenodd" d="M102.3 73.9s3.4 3.7 8 3.7a9.7 9.7 0 0 0 4.8-1.3c7-3.8 6.9-9.8 6.8-10.1l-4.5-22.3a.3.3 0 0 0-.3-.2 7.2 7.2 0 0 1-3.2-2.3c-1.6-1.7-3.6-5-4.4-11.3a.4.4 0 0 0-.2-.3.3.3 0 0 0-.4 0 38.2 38.2 0 0 1-18.4 7.9.3.3 0 0 0-.3.3c0 .8.1 14.1 2.6 19.6 2.2 4.9 7.3 4.8 8.8 4.6l.6 11.5a.3.3 0 0 0 .1.2Zm12.5 1.8c-6.3 3.4-11.2-1.5-11.9-2.2l-.7-11.7a.4.4 0 0 0 0-.3.3.3 0 0 0-.4 0c-.2 0-6 1-8.4-4.2-2.2-5-2.5-17-2.5-19a39.4 39.4 0 0 0 18-7.6c1.6 10.9 6.7 13.2 7.9 13.5l4.5 22c0 .2 0 5.9-6.5 9.5Z" clip-rule="evenodd"/>
		<path fill="#fff" d="M114.5 50.2a6.2 6.2 0 0 0 4.6-1 6.6 6.6 0 0 0 2.4-6 5.5 5.5 0 0 0-.7-2.5 3 3 0 0 0-2-1.4 4.7 4.7 0 0 0-2.8.7c-1.3.7-1.4 1.5-2 2.6l.1-.5"/>
		<path fill="#231F20" d="M115.4 50.7a6.7 6.7 0 0 1-1-.1.3.3 0 0 1-.3-.4.3.3 0 0 1 .4-.3 5.8 5.8 0 0 0 4.3-1 6.3 6.3 0 0 0 2.4-5.8 5.1 5.1 0 0 0-.7-2.2 2.6 2.6 0 0 0-1.7-1.3c-.8-.1-1.7.3-2.6.7a2.9 2.9 0 0 0-1.4 1.6l-.6.9a.3.3 0 0 1-.5 0 .3.3 0 0 1 0-.4v-.1c0-.1 0-.3.2-.4l.2-.3a3.6 3.6 0 0 1 1.8-1.8c.8-.4 1.9-1 3-.8 1 .2 1.8.8 2.3 1.6a5.8 5.8 0 0 1 .6 2.5 7 7 0 0 1-2.6 6.3 6.5 6.5 0 0 1-3.8 1.3ZM102.3 68a8.3 8.3 0 0 0 6.6-4c2.4-4.1 1.4-6.7 1.4-6.7s-3.3 4.2-8.4 4.5l.4 6.2Z"/>
		<path fill="#231F20" fill-rule="evenodd" d="M102 68c0 .2 0 .4.3.4a8.6 8.6 0 0 0 6.8-4.2c2.5-4.2 1.6-6.8 1.5-7a.3.3 0 0 0-.2-.2.3.3 0 0 0-.4.2c0 .1-3.3 4-8.1 4.3a.3.3 0 0 0-.3.4l.3 6.2Zm.6-.3-.3-5.6a13 13 0 0 0 7.8-4c.1 1 0 3-1.6 5.7a8 8 0 0 1-6 3.9Z" clip-rule="evenodd"/>
		<path fill="#fff" d="M101 43s-2.6 6.8-1.4 7.6c1.2.8 3.6-.4 3.6-.4"/>
		<path fill="#231F20" fill-rule="evenodd" d="M100 58.8a3.2 3.2 0 0 0 1.8.5l1.3-.1a5.6 5.6 0 0 0 3.5-3.4.4.4 0 0 0 0-.3.3.3 0 0 0-.2-.1 6.2 6.2 0 0 0-4.2-.1c-1 .4-1.9 1.5-2.4 3.1a.3.3 0 0 0 .2.4Zm2.8-.3a3 3 0 0 1-2.2-.1c.4-1.3 1-2.2 1.9-2.5a5.4 5.4 0 0 1 3.4 0 4.9 4.9 0 0 1-3 2.6Z" clip-rule="evenodd"/>
		<path d="M100.3 40a2 2 0 0 0-1.8 1 .4.4 0 0 0 .1.5.3.3 0 0 0 .2 0 .4.4 0 0 0 .3-.1c0-.2.7-1.1 2.2-.5a.4.4 0 1 0 .3-.7c-.5-.2-1-.2-1.3-.2zm10.5-3.5a2 2 0 0 0-.4 0l-7.7 1.7a2 2 0 0 0-1.6 1.9l.5.1a.4.4 0 0 1 .2.2c0-.3 0-.6.2-1 .2-.2.5-.4.9-.5l7.6-1.7a1.4 1.4 0 0 1 1.6 1l.7 3.3c.1.4 0 .7-.2 1-.2.3-.5.5-.8.6l-7.7 1.7a1.4 1.4 0 0 1-1.6-1l-.7-3.2a.4.4 0 0 1-.5.3l.5 3a2 2 0 0 0 2 1.6h.5l7.7-1.7a2 2 0 0 0 1.5-2.4l-.7-3.3a2 2 0 0 0-2-1.6zm-13.7 3a2.1 2.1 0 0 0-.4 0l-7.6 1.7a2 2 0 0 0-1.6 2.4l.7 3.3a2 2 0 0 0 2 1.6h.5l7.6-1.7a2 2 0 0 0 1.6-2.5l-.7-3a.4.4 0 0 1-.4.2.3.3 0 0 1-.2 0 .4.4 0 0 1 0-.1l.6 3a1.4 1.4 0 0 1-1 1.7l-7.7 1.7a1.4 1.4 0 0 1-1.6-1l-.7-3.4c-.2-.7.3-1.4 1-1.6l7.7-1.6h.3c.6 0 1 .3 1.3.9a.4.4 0 0 1 0-.1l.4-.5a2 2 0 0 0-1.8-1zm8.4.7a.7.7 0 0 0-.3 0c-.5.2-.8.9-.5 1.6.2.8.8 1.2 1.4 1 .5-.1.7-.8.5-1.6-.2-.6-.7-1-1.1-1zm-9 2.1c-.6 0-1 .6-1 1.4 0 .8.4 1.4 1 1.4.5 0 1-.6 1-1.4 0-.8-.5-1.4-1-1.4zm4.1 9a2 2 0 0 1-1.2-.4c-1.3-.9.7-6.3 1.3-8a.3.3 0 0 1 .6 0v.3c-1.2 3.1-2 6.8-1.5 7.1.8.6 2.6-.1 3.3-.4a.3.3 0 0 1 .4.1.3.3 0 0 1-.1.5 6.8 6.8 0 0 1-2.8.7zm5.7 4.4c-1.3 3.2-4.6 4-6.2 2.8.4-1.2 1-2.4 2.2-2.9a5.8 5.8 0 0 1 4 0zm-6.3 3.1c.5.4 1.2.6 1.8.5a4.5 4.5 0 0 0 1.3-.1 5.6 5.6 0 0 0 3.5-3.4 8.9 8.9 0 0 0 .6-4 .4.4 0 0 0-.2-.3 37 37 0 0 0-9 1.7.3.3 0 0 0-.4.4c0 .1.2 3.6 2.4 5.2zm.4-.6c-1.6-1-2-3.5-2-4.3l8.1-1.8a8 8 0 0 1-.5 3.5 5 5 0 0 1-3.2 3 3 3 0 0 1-2.4-.4z" style="fill:#231f20"/>
		<path fill="#fff" d="m32.7 106.2.3-1.3c.6-1.3 1.4-2.2 3.2-2.2h67.1a3.8 3.8 0 0 1 3.6 2.7l11 37.5a3.4 3.4 0 0 1-2 4.2l-1.1.3-82.1-41.2Z"/>
		<path d="M7.8 174.2v7.2h186.4v-7.2zm22.7-42L8 173.7h186.2l-22.6-41.3z" style="fill:#fff;stroke:#d2d3d4;stroke-width:.7;stroke-opacity:.792157"/>
		<path fill="#231F20" fill-rule="evenodd" d="M114.6 147.7a.4.4 0 0 0 .2 0l1.3-.2a3.7 3.7 0 0 0 2-4.6l-10.9-37.6a4.1 4.1 0 0 0-3.9-3H36.1c-2 0-2.8 1.2-3.5 2.4a.4.4 0 0 0 0 .1l-.3 1.3a.3.3 0 0 0 .2.4l82.1 41.2Zm.3-.7L33 106l.2-1c.7-1.3 1.4-2 2.9-2h67.1a3.4 3.4 0 0 1 3.3 2.5l11 37.5c.3 1.4 0 3.2-1.7 3.8l-1 .2Z" clip-rule="evenodd"/>
		<path fill="#231F20" d="M114.8 147.4H46.3a2.2 2.2 0 0 1-2-1.6l-11.6-39.6a1 1 0 0 1 1-1.3H104l12 41a1.2 1.2 0 0 1-1.2 1.5Z"/>
		<path fill="#231F20" fill-rule="evenodd" d="M46.3 147.8h68.5a1.5 1.5 0 0 0 1.5-2l-12-41a.3.3 0 0 0-.3-.2H33.6a1.4 1.4 0 0 0-1.3 1.7L44 145.9a2.5 2.5 0 0 0 2.4 1.9ZM33 105.5a.7.7 0 0 1 .5-.3h70.1l12 40.8a.8.8 0 0 1-.2.7.9.9 0 0 1-.7.4H46.3a1.8 1.8 0 0 1-1.8-1.4L33 106.1a.7.7 0 0 1 .1-.6Z" clip-rule="evenodd"/>
		<path fill="#fff" d="m103.3 130.5-4.2 17.7a4.3 4.3 0 0 1-4.2 3.4H51.6a4.3 4.3 0 0 1-4.2-5.3l3.7-15.8h-3.6l-3.5 15a7.8 7.8 0 0 0 7.6 9.6H95a7.8 7.8 0 0 0 7.6-6l4.3-18.6h-3.6Z"/>
		<path fill="#231F20" fill-rule="evenodd" d="M51.6 155.4h43.3a8.2 8.2 0 0 0 8-6.3l4.4-18.5a.3.3 0 0 0-.3-.4h-3.7a.3.3 0 0 0-.3.2l-4.2 17.8a4 4 0 0 1-3.8 3H51.6a4 4 0 0 1-3.9-4.9l3.7-15.7a.3.3 0 0 0-.3-.4h-3.6a.3.3 0 0 0-.4.2l-3.5 15a8.2 8.2 0 0 0 8 10Zm-7.3-9.9 3.4-14.6h3L47 146.2a4.7 4.7 0 0 0 4.5 5.7H95a4.6 4.6 0 0 0 4.5-3.6l4.1-17.4h3l-4.3 18a7.5 7.5 0 0 1-7.3 5.9H51.6a7.5 7.5 0 0 1-7.3-9.3Z" clip-rule="evenodd"/>
		<path fill="#fff" d="M159.2 94.4s6.1 27.2 1.1 34.2c-5 7-40 5.9-40 5.9s-5.8 6.8-10.7 6.3c-5-.4-2-9.8 3.7-13.7l-.8-3.2 31-5-4.2-19.5"/>
		<path fill="#231F20" d="M110 141.2h-.5a2.9 2.9 0 0 1-2.7-2.3c-.7-3 1.7-8.8 6.1-11.9l-.7-3a.3.3 0 0 1 .2-.4l30.6-5-4-19.1a.3.3 0 0 1 .2-.4.3.3 0 0 1 .4.2l4.2 19.6a.3.3 0 0 1-.1.3.3.3 0 0 1-.2.1l-30.6 5 .7 2.8a.3.3 0 0 1-.1.4c-4.2 2.8-6.8 8.4-6 11.3a2.2 2.2 0 0 0 2 1.7c4.7.5 10.3-6.1 10.4-6.2a.3.3 0 0 1 .2-.1c.4 0 35 1 39.9-5.8 4.8-6.7-1.1-33.6-1.2-33.9a.4.4 0 0 1 .7-.2c.3 1.2 6.1 27.5 1 34.5-4.9 6.9-37.3 6.1-40.2 6-.8 1-5.7 6.4-10.3 6.4ZM122.4 81a.3.3 0 0 1-.2 0 .3.3 0 0 1-.1-.5A47.4 47.4 0 0 1 140 63a.3.3 0 0 1 .5.1.3.3 0 0 1-.2.5c-.1 0-12.7 6.9-17.6 17a.4.4 0 0 1-.3.2Zm-21.1-.5a.4.4 0 0 1-.2 0 23.7 23.7 0 0 1-13.4-17.7.4.4 0 0 1 .6-.3.3.3 0 0 1 .1.2c0 .2 1.4 11.8 13 17.1a.4.4 0 0 1 .2.5.4.4 0 0 1-.3.2ZM46.8 96a.4.4 0 0 1 0-.7c5.2-.2 7.7-3.1 7.7-3.1a.3.3 0 0 1 .5 0 .4.4 0 0 1 0 .4c0 .2-2.7 3.2-8.2 3.4Z"/>
		<path fill="#231F20" d="M139.3 99.7a.3.3 0 0 1-.3-.3s-3.3-12.7-3.7-20.3a.3.3 0 0 1 .3-.4.4.4 0 0 1 .4.3c.4 7.6 3.6 20.1 3.6 20.3a.4.4 0 0 1-.2.4h-.1ZM84 102a.3.3 0 0 1-.3-.4l1.7-26.7a.3.3 0 0 1 .3-.3.3.3 0 0 1 .4.4l-1.8 26.6a.3.3 0 0 1-.3.4Zm60.7-15a.3.3 0 0 1-.3-.1l-3.3-6.2a.4.4 0 0 1 0-.3.4.4 0 0 1 .2-.2l10.3-4.9a.4.4 0 0 1 .5.2.4.4 0 0 1-.2.5l-10 4.7 3 5.5 10.1-3a.4.4 0 0 1 .2.6L145 87.1h-.2Z"/>
		<path fill="#D1D3D4" fill-rule="evenodd" d="M136.4 160.3c0 3 7.6 5.4 17.3 5.4 9.6 0 17.2-2.4 17.2-5.4 0-3-7.6-5.5-17.2-5.5-9.7 0-17.3 2.4-17.3 5.5Zm.7 0c0-2.3 6.6-4.8 16.6-4.8 9.9 0 16.6 2.5 16.6 4.8s-6.7 4.7-16.6 4.7c-10 0-16.6-2.4-16.6-4.7Z" clip-rule="evenodd"/>
		<path fill="#fff" d="M142.3 146.8h-.4a5 5 0 0 0-3.1 1.8 4.3 4.3 0 0 0-.1 4.6c1.8 3.2 6.1 4 9.5 4.4h1.5c.4-.2.7-.7.7-1.2a1.2 1.2 0 0 0-.6-.9 3.7 3.7 0 0 0-1.2-.3c-2-.3-4.3-.6-6.2-1.6-1.1-.5-2.7-1.8-1.9-3.2a2.7 2.7 0 0 1 1.2-1c2-1 3.8-.2 5.7.3h.4a.8.8 0 0 0 .6-.8c0-.8-1-1.4-1.7-1.7a8.8 8.8 0 0 0-4.4-.4z"/>
		<path d="M143.5 146.6a9.5 9.5 0 0 0-.9 0l.2.8a8.3 8.3 0 0 1 1.7 0l-.1-.7a9 9 0 0 0-1 0zm-1.6.2h-.2c-1.3.2-2.5.9-3.4 1.9-1 1.5-1 3.4-.1 5 1 1.8 3 3.2 6 4l-.2-.8c-2.6-.8-4.3-2-5.2-3.6a4 4 0 0 1 0-4.2c.8-.9 1.9-1.5 3-1.6h.3l-.2-.7zm1.6 2-.4.1.1.7c.6 0 1.2 0 1.8.2l-.1-.8-1.4-.1zm-1.1.2-1 .4a3 3 0 0 0-1.3 1.1c-.3.5-.4 1-.2 1.5.4 1 1.2 1.8 2.2 2.3l1.5.5-.2-.8c-.3 0-.7-.2-1-.4-.8-.3-1.5-1-1.8-1.8v-1l1.1-.8.8-.3-.1-.7zm1.8 5.3.1.8 1.9.4-.2-.7-1.8-.5zm.5 2.8.2.7 1.8.3-.1-.7c-.7 0-1.3-.2-1.9-.3z" style="clip-rule:evenodd;fill:#231f20;fill-rule:evenodd"/>
		<path d="M152.4 139.4h-1.9c-5.2.4-9 2.3-9 4.8a1367.5 1367.5 0 0 0 3.5 17c0 .5 1.5 1.3 2.8 1.8 1.7.7 3.5 1 5.3 1 2.1 0 4.2-.5 6-1.7l.2-.1 5.2-16.2v-1c.1-2.4-3.2-4.5-8-5.3l-.9-.1-.5-.1h-.3l-1-.1h-1.4zM142 146zm.3.3zm.3.4c1.9 1.7 5.6 3 10.2 3.1h1c2.4 0 4.8-.3 7-1a9 9 0 0 0 2.5-1.5l-4.6 14.5a11.7 11.7 0 0 1-9.6 1c-2.2-.8-3.5-1.7-3.6-1.9l-2.9-14.2zm18 1.3-1.8.6a20.2 20.2 0 0 0 1.9-.6zm-1.9.6-1.8.4a20.2 20.2 0 0 0 1.8-.4zm-6 .6a20.2 20.2 0 0 0 1.7 0h-1.6z" style="clip-rule:evenodd;fill:#231f20;fill-rule:evenodd"/>
		<path d="M163.3 147.3a7 7 0 0 1-2.4 1.4 19 19 0 0 1-7 1.1h-1.1c-4.6-.1-8.3-1.4-10.2-3.1.9 4.1 2.7 13.5 3 14.2 0 .2 1.3 1.1 3.5 1.8 2 .6 6 1.3 9.6-.9z" style="clip-rule:evenodd;fill:#fff;fill-opacity:1;fill-rule:evenodd"/>
		<path fill="#fff" fill-rule="evenodd" d="M90.5 98.3h36.3a.3.3 0 0 0 .4-.4V87.2a.3.3 0 0 0-.4-.4H90.5a.3.3 0 0 0-.3.4v10.7c0 .2.2.4.3.4Zm36-.7H90.9v-10h35.6v10Z" clip-rule="evenodd"/>
		<path fill="#fff" d="M164.8 107.1a.3.3 0 0 1-.3-.3c0-.8.5-19.4 2.6-25.9a18 18 0 0 1 6-9.2.3.3 0 1 1 .4.6s-3.8 2.6-5.8 8.8c-2 6.3-2.5 25.5-2.5 25.7a.3.3 0 0 1-.4.3Z"/>
    </symbol>
</svg>



